G75*
%MOIN*%
%OFA0B0*%
%FSLAX25Y25*%
%IPPOS*%
%LPD*%
%AMOC8*
5,1,8,0,0,1.08239X$1,22.5*
%
%ADD10C,0.08200*%
%ADD11R,0.06706X0.03556*%
%ADD12R,0.14186X0.05918*%
%ADD13C,0.06000*%
%ADD14OC8,0.08200*%
%ADD15C,0.03975*%
D10*
X0165567Y0119138D03*
X0175567Y0119138D03*
X0185567Y0119138D03*
X0195567Y0119138D03*
X0205567Y0119138D03*
X0215567Y0119138D03*
D11*
X0224913Y0103015D03*
X0224913Y0099078D03*
X0224913Y0095141D03*
X0224913Y0091204D03*
X0242630Y0093172D03*
X0242630Y0089235D03*
X0242630Y0097109D03*
X0242630Y0101046D03*
X0242630Y0104983D03*
X0145652Y0095503D03*
X0145652Y0091566D03*
X0145652Y0087629D03*
X0145652Y0083692D03*
X0145652Y0079755D03*
X0145652Y0075818D03*
X0145652Y0071881D03*
X0145652Y0067944D03*
X0145652Y0064007D03*
X0145652Y0060070D03*
X0145652Y0056133D03*
X0145652Y0052196D03*
X0145652Y0048259D03*
X0145652Y0044322D03*
X0145652Y0040385D03*
X0145652Y0036448D03*
X0127935Y0038417D03*
X0127935Y0042354D03*
X0127935Y0046291D03*
X0127935Y0050228D03*
X0127935Y0054165D03*
X0127935Y0058102D03*
X0127935Y0062039D03*
X0127935Y0065976D03*
X0127935Y0069913D03*
X0127935Y0073850D03*
X0127935Y0077787D03*
X0127935Y0081724D03*
X0127935Y0085661D03*
X0127935Y0089598D03*
X0127935Y0093535D03*
D12*
X0136794Y0106920D03*
X0233772Y0116401D03*
X0233772Y0077818D03*
X0136794Y0025031D03*
D13*
X0136794Y0030346D03*
X0136794Y0030354D03*
X0233772Y0083133D03*
X0233772Y0083141D03*
X0233772Y0111086D03*
X0233772Y0111094D03*
X0136794Y0101613D03*
X0136794Y0101606D03*
D14*
X0194701Y0033311D03*
X0204701Y0033311D03*
X0214701Y0033311D03*
X0224701Y0033311D03*
X0234701Y0033311D03*
X0244701Y0033311D03*
X0244701Y0023311D03*
X0234701Y0023311D03*
X0224701Y0023311D03*
X0214701Y0023311D03*
X0204701Y0023311D03*
X0194701Y0023311D03*
D15*
X0048244Y0018744D03*
X0048244Y0024650D03*
X0057299Y0021894D03*
X0063205Y0020713D03*
X0081709Y0024650D03*
X0093520Y0024650D03*
X0067929Y0034492D03*
X0089583Y0044335D03*
X0071866Y0054177D03*
X0063992Y0062051D03*
X0060055Y0054177D03*
X0048244Y0054177D03*
X0048244Y0062051D03*
X0048244Y0069925D03*
X0056118Y0075831D03*
X0056118Y0081736D03*
X0048244Y0077799D03*
X0048244Y0085673D03*
X0067142Y0082130D03*
X0075016Y0081736D03*
X0083677Y0085673D03*
X0078165Y0073862D03*
X0071866Y0073862D03*
X0060055Y0069925D03*
X0079740Y0062051D03*
X0103362Y0062051D03*
X0123047Y0062051D03*
X0123047Y0058114D03*
X0123047Y0054177D03*
X0123047Y0050240D03*
X0123047Y0046303D03*
X0123047Y0042366D03*
X0123047Y0038429D03*
X0148638Y0024650D03*
X0150606Y0036461D03*
X0150606Y0040398D03*
X0150606Y0044335D03*
X0150606Y0048272D03*
X0150606Y0052209D03*
X0150606Y0056146D03*
X0150606Y0060083D03*
X0150606Y0064020D03*
X0150606Y0067944D03*
X0150606Y0067957D03*
X0150606Y0071881D03*
X0150606Y0071894D03*
X0150606Y0075831D03*
X0150606Y0079768D03*
X0150606Y0083705D03*
X0150606Y0087629D03*
X0150606Y0087642D03*
X0150606Y0091579D03*
X0150606Y0095516D03*
X0149031Y0104965D03*
X0168323Y0107327D03*
X0175803Y0099453D03*
X0185252Y0102996D03*
X0191945Y0107327D03*
X0208874Y0089610D03*
X0219898Y0091185D03*
X0219898Y0095122D03*
X0219898Y0099059D03*
X0219898Y0102996D03*
X0245094Y0117169D03*
X0247457Y0104965D03*
X0247457Y0101028D03*
X0247457Y0097091D03*
X0247457Y0093154D03*
X0247457Y0089217D03*
X0237220Y0069925D03*
X0245094Y0062051D03*
X0237220Y0050240D03*
X0245094Y0042366D03*
X0219504Y0050240D03*
X0213992Y0053783D03*
X0217535Y0062051D03*
X0221079Y0073469D03*
X0205724Y0073862D03*
X0199819Y0075831D03*
X0205724Y0079768D03*
X0189976Y0087642D03*
X0187220Y0075831D03*
X0187220Y0071500D03*
X0158480Y0054177D03*
X0166354Y0046303D03*
X0158480Y0038429D03*
X0178165Y0030555D03*
X0170291Y0022681D03*
X0186039Y0022681D03*
X0178953Y0043547D03*
X0123047Y0065988D03*
X0123047Y0069925D03*
X0123047Y0073862D03*
X0123047Y0077799D03*
X0123047Y0081736D03*
X0123047Y0085673D03*
X0123047Y0089610D03*
X0123047Y0093547D03*
X0117142Y0093547D03*
X0115173Y0098665D03*
X0119110Y0103390D03*
X0111236Y0109295D03*
X0083677Y0109295D03*
X0063992Y0121106D03*
X0056118Y0121106D03*
X0048244Y0121106D03*
X0048244Y0113232D03*
X0056118Y0113232D03*
X0048244Y0105358D03*
X0061630Y0101421D03*
X0156512Y0121500D03*
M02*
