%
M48
M72
T01C0.01575
T02C0.04000
T03C0.05200
%
T01
X48244Y18744
X48244Y24650
X57299Y21894
X63205Y20713
X81709Y24650
X93520Y24650
X67929Y34492
X89583Y44335
X71866Y54177
X63992Y62051
X60055Y54177
X48244Y54177
X48244Y62051
X48244Y69925
X56118Y75831
X56118Y81736
X48244Y77799
X48244Y85673
X67142Y82130
X75016Y81736
X83677Y85673
X78165Y73862
X71866Y73862
X60055Y69925
X79740Y62051
X103362Y62051
X123047Y62051
X123047Y58114
X123047Y54177
X123047Y50240
X123047Y46303
X123047Y42366
X123047Y38429
X148638Y24650
X150606Y36461
X150606Y40398
X150606Y44335
X150606Y48272
X150606Y52209
X150606Y56146
X150606Y60083
X150606Y64020
X150606Y67944
X150606Y67957
X150606Y71881
X150606Y71894
X150606Y75831
X150606Y79768
X150606Y83705
X150606Y87629
X150606Y87642
X150606Y91579
X150606Y95516
X149031Y104965
X168323Y107327
X175803Y99453
X185252Y102996
X191945Y107327
X208874Y89610
X219898Y91185
X219898Y95122
X219898Y99059
X219898Y102996
X245094Y117169
X247457Y104965
X247457Y101028
X247457Y97091
X247457Y93154
X247457Y89217
X237220Y69925
X245094Y62051
X237220Y50240
X245094Y42366
X219504Y50240
X213992Y53783
X217535Y62051
X221079Y73469
X205724Y73862
X199819Y75831
X205724Y79768
X189976Y87642
X187220Y75831
X187220Y71500
X158480Y54177
X166354Y46303
X158480Y38429
X178165Y30555
X170291Y22681
X186039Y22681
X178953Y43547
X123047Y65988
X123047Y69925
X123047Y73862
X123047Y77799
X123047Y81736
X123047Y85673
X123047Y89610
X123047Y93547
X117142Y93547
X115173Y98665
X119110Y103390
X111236Y109295
X83677Y109295
X63992Y121106
X56118Y121106
X48244Y121106
X48244Y113232
X56118Y113232
X48244Y105358
X61630Y101421
X156512Y121500
T02
X165567Y119138
X175567Y119138
X185567Y119138
X195567Y119138
X205567Y119138
X215567Y119138
X214701Y33311
X204701Y33311
X194701Y33311
X194701Y23311
X204701Y23311
X214701Y23311
X224701Y23311
X234701Y23311
X244701Y23311
X244701Y33311
X234701Y33311
X224701Y33311
T03
X233772Y83133
X233772Y83141
X233772Y111086
X233772Y111094
X136794Y101613
X136794Y101606
X136794Y30354
X136794Y30346
M30
