G75*
%MOIN*%
%OFA0B0*%
%FSLAX25Y25*%
%IPPOS*%
%LPD*%
%AMOC8*
5,1,8,0,0,1.08239X$1,22.5*
%
%ADD10C,0.00000*%
%ADD11R,0.03150X0.03150*%
%ADD12R,0.03937X0.04331*%
%ADD13R,0.09646X0.03937*%
%ADD14R,0.03937X0.09646*%
%ADD15C,0.07400*%
%ADD16R,0.04331X0.03937*%
%ADD17R,0.05906X0.02756*%
%ADD18R,0.13386X0.05118*%
%ADD19R,0.06000X0.03000*%
%ADD20OC8,0.07400*%
%ADD21C,0.03175*%
%ADD22C,0.00700*%
D10*
X0042339Y0012839D02*
X0042339Y0127012D01*
X0254937Y0127012D01*
X0254937Y0012839D01*
X0042339Y0012839D01*
X0134194Y0030346D02*
X0134196Y0030447D01*
X0134202Y0030549D01*
X0134212Y0030650D01*
X0134226Y0030750D01*
X0134243Y0030850D01*
X0134265Y0030949D01*
X0134290Y0031047D01*
X0134320Y0031145D01*
X0134353Y0031241D01*
X0134389Y0031335D01*
X0134430Y0031428D01*
X0134474Y0031520D01*
X0134521Y0031609D01*
X0134573Y0031697D01*
X0134627Y0031783D01*
X0134685Y0031866D01*
X0134746Y0031947D01*
X0134810Y0032026D01*
X0134877Y0032102D01*
X0134947Y0032175D01*
X0135019Y0032246D01*
X0135095Y0032314D01*
X0135173Y0032379D01*
X0135253Y0032440D01*
X0135336Y0032499D01*
X0135421Y0032554D01*
X0135509Y0032606D01*
X0135598Y0032655D01*
X0135689Y0032699D01*
X0135781Y0032741D01*
X0135876Y0032778D01*
X0135971Y0032812D01*
X0136068Y0032843D01*
X0136166Y0032869D01*
X0136265Y0032892D01*
X0136365Y0032910D01*
X0136465Y0032925D01*
X0136566Y0032936D01*
X0136667Y0032943D01*
X0136769Y0032946D01*
X0136870Y0032945D01*
X0136971Y0032940D01*
X0137073Y0032931D01*
X0137173Y0032918D01*
X0137273Y0032901D01*
X0137373Y0032881D01*
X0137471Y0032856D01*
X0137568Y0032828D01*
X0137665Y0032796D01*
X0137760Y0032760D01*
X0137853Y0032721D01*
X0137945Y0032677D01*
X0138035Y0032631D01*
X0138123Y0032581D01*
X0138209Y0032527D01*
X0138293Y0032470D01*
X0138375Y0032410D01*
X0138454Y0032347D01*
X0138531Y0032280D01*
X0138605Y0032211D01*
X0138677Y0032139D01*
X0138745Y0032064D01*
X0138811Y0031987D01*
X0138873Y0031907D01*
X0138933Y0031825D01*
X0138989Y0031740D01*
X0139041Y0031653D01*
X0139091Y0031565D01*
X0139137Y0031474D01*
X0139179Y0031382D01*
X0139217Y0031288D01*
X0139252Y0031193D01*
X0139283Y0031096D01*
X0139311Y0030998D01*
X0139334Y0030900D01*
X0139354Y0030800D01*
X0139370Y0030700D01*
X0139382Y0030599D01*
X0139390Y0030498D01*
X0139394Y0030397D01*
X0139394Y0030295D01*
X0139390Y0030194D01*
X0139382Y0030093D01*
X0139370Y0029992D01*
X0139354Y0029892D01*
X0139334Y0029792D01*
X0139311Y0029694D01*
X0139283Y0029596D01*
X0139252Y0029499D01*
X0139217Y0029404D01*
X0139179Y0029310D01*
X0139137Y0029218D01*
X0139091Y0029127D01*
X0139041Y0029039D01*
X0138989Y0028952D01*
X0138933Y0028867D01*
X0138873Y0028785D01*
X0138811Y0028705D01*
X0138745Y0028628D01*
X0138677Y0028553D01*
X0138605Y0028481D01*
X0138531Y0028412D01*
X0138454Y0028345D01*
X0138375Y0028282D01*
X0138293Y0028222D01*
X0138209Y0028165D01*
X0138123Y0028111D01*
X0138035Y0028061D01*
X0137945Y0028015D01*
X0137853Y0027971D01*
X0137760Y0027932D01*
X0137665Y0027896D01*
X0137568Y0027864D01*
X0137471Y0027836D01*
X0137373Y0027811D01*
X0137273Y0027791D01*
X0137173Y0027774D01*
X0137073Y0027761D01*
X0136971Y0027752D01*
X0136870Y0027747D01*
X0136769Y0027746D01*
X0136667Y0027749D01*
X0136566Y0027756D01*
X0136465Y0027767D01*
X0136365Y0027782D01*
X0136265Y0027800D01*
X0136166Y0027823D01*
X0136068Y0027849D01*
X0135971Y0027880D01*
X0135876Y0027914D01*
X0135781Y0027951D01*
X0135689Y0027993D01*
X0135598Y0028037D01*
X0135509Y0028086D01*
X0135421Y0028138D01*
X0135336Y0028193D01*
X0135253Y0028252D01*
X0135173Y0028313D01*
X0135095Y0028378D01*
X0135019Y0028446D01*
X0134947Y0028517D01*
X0134877Y0028590D01*
X0134810Y0028666D01*
X0134746Y0028745D01*
X0134685Y0028826D01*
X0134627Y0028909D01*
X0134573Y0028995D01*
X0134521Y0029083D01*
X0134474Y0029172D01*
X0134430Y0029264D01*
X0134389Y0029357D01*
X0134353Y0029451D01*
X0134320Y0029547D01*
X0134290Y0029645D01*
X0134265Y0029743D01*
X0134243Y0029842D01*
X0134226Y0029942D01*
X0134212Y0030042D01*
X0134202Y0030143D01*
X0134196Y0030245D01*
X0134194Y0030346D01*
X0134194Y0030354D02*
X0134196Y0030455D01*
X0134202Y0030557D01*
X0134212Y0030658D01*
X0134226Y0030758D01*
X0134243Y0030858D01*
X0134265Y0030957D01*
X0134290Y0031055D01*
X0134320Y0031153D01*
X0134353Y0031249D01*
X0134389Y0031343D01*
X0134430Y0031436D01*
X0134474Y0031528D01*
X0134521Y0031617D01*
X0134573Y0031705D01*
X0134627Y0031791D01*
X0134685Y0031874D01*
X0134746Y0031955D01*
X0134810Y0032034D01*
X0134877Y0032110D01*
X0134947Y0032183D01*
X0135019Y0032254D01*
X0135095Y0032322D01*
X0135173Y0032387D01*
X0135253Y0032448D01*
X0135336Y0032507D01*
X0135421Y0032562D01*
X0135509Y0032614D01*
X0135598Y0032663D01*
X0135689Y0032707D01*
X0135781Y0032749D01*
X0135876Y0032786D01*
X0135971Y0032820D01*
X0136068Y0032851D01*
X0136166Y0032877D01*
X0136265Y0032900D01*
X0136365Y0032918D01*
X0136465Y0032933D01*
X0136566Y0032944D01*
X0136667Y0032951D01*
X0136769Y0032954D01*
X0136870Y0032953D01*
X0136971Y0032948D01*
X0137073Y0032939D01*
X0137173Y0032926D01*
X0137273Y0032909D01*
X0137373Y0032889D01*
X0137471Y0032864D01*
X0137568Y0032836D01*
X0137665Y0032804D01*
X0137760Y0032768D01*
X0137853Y0032729D01*
X0137945Y0032685D01*
X0138035Y0032639D01*
X0138123Y0032589D01*
X0138209Y0032535D01*
X0138293Y0032478D01*
X0138375Y0032418D01*
X0138454Y0032355D01*
X0138531Y0032288D01*
X0138605Y0032219D01*
X0138677Y0032147D01*
X0138745Y0032072D01*
X0138811Y0031995D01*
X0138873Y0031915D01*
X0138933Y0031833D01*
X0138989Y0031748D01*
X0139041Y0031661D01*
X0139091Y0031573D01*
X0139137Y0031482D01*
X0139179Y0031390D01*
X0139217Y0031296D01*
X0139252Y0031201D01*
X0139283Y0031104D01*
X0139311Y0031006D01*
X0139334Y0030908D01*
X0139354Y0030808D01*
X0139370Y0030708D01*
X0139382Y0030607D01*
X0139390Y0030506D01*
X0139394Y0030405D01*
X0139394Y0030303D01*
X0139390Y0030202D01*
X0139382Y0030101D01*
X0139370Y0030000D01*
X0139354Y0029900D01*
X0139334Y0029800D01*
X0139311Y0029702D01*
X0139283Y0029604D01*
X0139252Y0029507D01*
X0139217Y0029412D01*
X0139179Y0029318D01*
X0139137Y0029226D01*
X0139091Y0029135D01*
X0139041Y0029047D01*
X0138989Y0028960D01*
X0138933Y0028875D01*
X0138873Y0028793D01*
X0138811Y0028713D01*
X0138745Y0028636D01*
X0138677Y0028561D01*
X0138605Y0028489D01*
X0138531Y0028420D01*
X0138454Y0028353D01*
X0138375Y0028290D01*
X0138293Y0028230D01*
X0138209Y0028173D01*
X0138123Y0028119D01*
X0138035Y0028069D01*
X0137945Y0028023D01*
X0137853Y0027979D01*
X0137760Y0027940D01*
X0137665Y0027904D01*
X0137568Y0027872D01*
X0137471Y0027844D01*
X0137373Y0027819D01*
X0137273Y0027799D01*
X0137173Y0027782D01*
X0137073Y0027769D01*
X0136971Y0027760D01*
X0136870Y0027755D01*
X0136769Y0027754D01*
X0136667Y0027757D01*
X0136566Y0027764D01*
X0136465Y0027775D01*
X0136365Y0027790D01*
X0136265Y0027808D01*
X0136166Y0027831D01*
X0136068Y0027857D01*
X0135971Y0027888D01*
X0135876Y0027922D01*
X0135781Y0027959D01*
X0135689Y0028001D01*
X0135598Y0028045D01*
X0135509Y0028094D01*
X0135421Y0028146D01*
X0135336Y0028201D01*
X0135253Y0028260D01*
X0135173Y0028321D01*
X0135095Y0028386D01*
X0135019Y0028454D01*
X0134947Y0028525D01*
X0134877Y0028598D01*
X0134810Y0028674D01*
X0134746Y0028753D01*
X0134685Y0028834D01*
X0134627Y0028917D01*
X0134573Y0029003D01*
X0134521Y0029091D01*
X0134474Y0029180D01*
X0134430Y0029272D01*
X0134389Y0029365D01*
X0134353Y0029459D01*
X0134320Y0029555D01*
X0134290Y0029653D01*
X0134265Y0029751D01*
X0134243Y0029850D01*
X0134226Y0029950D01*
X0134212Y0030050D01*
X0134202Y0030151D01*
X0134196Y0030253D01*
X0134194Y0030354D01*
X0231172Y0083133D02*
X0231174Y0083234D01*
X0231180Y0083336D01*
X0231190Y0083437D01*
X0231204Y0083537D01*
X0231221Y0083637D01*
X0231243Y0083736D01*
X0231268Y0083834D01*
X0231298Y0083932D01*
X0231331Y0084028D01*
X0231367Y0084122D01*
X0231408Y0084215D01*
X0231452Y0084307D01*
X0231499Y0084396D01*
X0231551Y0084484D01*
X0231605Y0084570D01*
X0231663Y0084653D01*
X0231724Y0084734D01*
X0231788Y0084813D01*
X0231855Y0084889D01*
X0231925Y0084962D01*
X0231997Y0085033D01*
X0232073Y0085101D01*
X0232151Y0085166D01*
X0232231Y0085227D01*
X0232314Y0085286D01*
X0232399Y0085341D01*
X0232487Y0085393D01*
X0232576Y0085442D01*
X0232667Y0085486D01*
X0232759Y0085528D01*
X0232854Y0085565D01*
X0232949Y0085599D01*
X0233046Y0085630D01*
X0233144Y0085656D01*
X0233243Y0085679D01*
X0233343Y0085697D01*
X0233443Y0085712D01*
X0233544Y0085723D01*
X0233645Y0085730D01*
X0233747Y0085733D01*
X0233848Y0085732D01*
X0233949Y0085727D01*
X0234051Y0085718D01*
X0234151Y0085705D01*
X0234251Y0085688D01*
X0234351Y0085668D01*
X0234449Y0085643D01*
X0234546Y0085615D01*
X0234643Y0085583D01*
X0234738Y0085547D01*
X0234831Y0085508D01*
X0234923Y0085464D01*
X0235013Y0085418D01*
X0235101Y0085368D01*
X0235187Y0085314D01*
X0235271Y0085257D01*
X0235353Y0085197D01*
X0235432Y0085134D01*
X0235509Y0085067D01*
X0235583Y0084998D01*
X0235655Y0084926D01*
X0235723Y0084851D01*
X0235789Y0084774D01*
X0235851Y0084694D01*
X0235911Y0084612D01*
X0235967Y0084527D01*
X0236019Y0084440D01*
X0236069Y0084352D01*
X0236115Y0084261D01*
X0236157Y0084169D01*
X0236195Y0084075D01*
X0236230Y0083980D01*
X0236261Y0083883D01*
X0236289Y0083785D01*
X0236312Y0083687D01*
X0236332Y0083587D01*
X0236348Y0083487D01*
X0236360Y0083386D01*
X0236368Y0083285D01*
X0236372Y0083184D01*
X0236372Y0083082D01*
X0236368Y0082981D01*
X0236360Y0082880D01*
X0236348Y0082779D01*
X0236332Y0082679D01*
X0236312Y0082579D01*
X0236289Y0082481D01*
X0236261Y0082383D01*
X0236230Y0082286D01*
X0236195Y0082191D01*
X0236157Y0082097D01*
X0236115Y0082005D01*
X0236069Y0081914D01*
X0236019Y0081826D01*
X0235967Y0081739D01*
X0235911Y0081654D01*
X0235851Y0081572D01*
X0235789Y0081492D01*
X0235723Y0081415D01*
X0235655Y0081340D01*
X0235583Y0081268D01*
X0235509Y0081199D01*
X0235432Y0081132D01*
X0235353Y0081069D01*
X0235271Y0081009D01*
X0235187Y0080952D01*
X0235101Y0080898D01*
X0235013Y0080848D01*
X0234923Y0080802D01*
X0234831Y0080758D01*
X0234738Y0080719D01*
X0234643Y0080683D01*
X0234546Y0080651D01*
X0234449Y0080623D01*
X0234351Y0080598D01*
X0234251Y0080578D01*
X0234151Y0080561D01*
X0234051Y0080548D01*
X0233949Y0080539D01*
X0233848Y0080534D01*
X0233747Y0080533D01*
X0233645Y0080536D01*
X0233544Y0080543D01*
X0233443Y0080554D01*
X0233343Y0080569D01*
X0233243Y0080587D01*
X0233144Y0080610D01*
X0233046Y0080636D01*
X0232949Y0080667D01*
X0232854Y0080701D01*
X0232759Y0080738D01*
X0232667Y0080780D01*
X0232576Y0080824D01*
X0232487Y0080873D01*
X0232399Y0080925D01*
X0232314Y0080980D01*
X0232231Y0081039D01*
X0232151Y0081100D01*
X0232073Y0081165D01*
X0231997Y0081233D01*
X0231925Y0081304D01*
X0231855Y0081377D01*
X0231788Y0081453D01*
X0231724Y0081532D01*
X0231663Y0081613D01*
X0231605Y0081696D01*
X0231551Y0081782D01*
X0231499Y0081870D01*
X0231452Y0081959D01*
X0231408Y0082051D01*
X0231367Y0082144D01*
X0231331Y0082238D01*
X0231298Y0082334D01*
X0231268Y0082432D01*
X0231243Y0082530D01*
X0231221Y0082629D01*
X0231204Y0082729D01*
X0231190Y0082829D01*
X0231180Y0082930D01*
X0231174Y0083032D01*
X0231172Y0083133D01*
X0231172Y0083141D02*
X0231174Y0083242D01*
X0231180Y0083344D01*
X0231190Y0083445D01*
X0231204Y0083545D01*
X0231221Y0083645D01*
X0231243Y0083744D01*
X0231268Y0083842D01*
X0231298Y0083940D01*
X0231331Y0084036D01*
X0231367Y0084130D01*
X0231408Y0084223D01*
X0231452Y0084315D01*
X0231499Y0084404D01*
X0231551Y0084492D01*
X0231605Y0084578D01*
X0231663Y0084661D01*
X0231724Y0084742D01*
X0231788Y0084821D01*
X0231855Y0084897D01*
X0231925Y0084970D01*
X0231997Y0085041D01*
X0232073Y0085109D01*
X0232151Y0085174D01*
X0232231Y0085235D01*
X0232314Y0085294D01*
X0232399Y0085349D01*
X0232487Y0085401D01*
X0232576Y0085450D01*
X0232667Y0085494D01*
X0232759Y0085536D01*
X0232854Y0085573D01*
X0232949Y0085607D01*
X0233046Y0085638D01*
X0233144Y0085664D01*
X0233243Y0085687D01*
X0233343Y0085705D01*
X0233443Y0085720D01*
X0233544Y0085731D01*
X0233645Y0085738D01*
X0233747Y0085741D01*
X0233848Y0085740D01*
X0233949Y0085735D01*
X0234051Y0085726D01*
X0234151Y0085713D01*
X0234251Y0085696D01*
X0234351Y0085676D01*
X0234449Y0085651D01*
X0234546Y0085623D01*
X0234643Y0085591D01*
X0234738Y0085555D01*
X0234831Y0085516D01*
X0234923Y0085472D01*
X0235013Y0085426D01*
X0235101Y0085376D01*
X0235187Y0085322D01*
X0235271Y0085265D01*
X0235353Y0085205D01*
X0235432Y0085142D01*
X0235509Y0085075D01*
X0235583Y0085006D01*
X0235655Y0084934D01*
X0235723Y0084859D01*
X0235789Y0084782D01*
X0235851Y0084702D01*
X0235911Y0084620D01*
X0235967Y0084535D01*
X0236019Y0084448D01*
X0236069Y0084360D01*
X0236115Y0084269D01*
X0236157Y0084177D01*
X0236195Y0084083D01*
X0236230Y0083988D01*
X0236261Y0083891D01*
X0236289Y0083793D01*
X0236312Y0083695D01*
X0236332Y0083595D01*
X0236348Y0083495D01*
X0236360Y0083394D01*
X0236368Y0083293D01*
X0236372Y0083192D01*
X0236372Y0083090D01*
X0236368Y0082989D01*
X0236360Y0082888D01*
X0236348Y0082787D01*
X0236332Y0082687D01*
X0236312Y0082587D01*
X0236289Y0082489D01*
X0236261Y0082391D01*
X0236230Y0082294D01*
X0236195Y0082199D01*
X0236157Y0082105D01*
X0236115Y0082013D01*
X0236069Y0081922D01*
X0236019Y0081834D01*
X0235967Y0081747D01*
X0235911Y0081662D01*
X0235851Y0081580D01*
X0235789Y0081500D01*
X0235723Y0081423D01*
X0235655Y0081348D01*
X0235583Y0081276D01*
X0235509Y0081207D01*
X0235432Y0081140D01*
X0235353Y0081077D01*
X0235271Y0081017D01*
X0235187Y0080960D01*
X0235101Y0080906D01*
X0235013Y0080856D01*
X0234923Y0080810D01*
X0234831Y0080766D01*
X0234738Y0080727D01*
X0234643Y0080691D01*
X0234546Y0080659D01*
X0234449Y0080631D01*
X0234351Y0080606D01*
X0234251Y0080586D01*
X0234151Y0080569D01*
X0234051Y0080556D01*
X0233949Y0080547D01*
X0233848Y0080542D01*
X0233747Y0080541D01*
X0233645Y0080544D01*
X0233544Y0080551D01*
X0233443Y0080562D01*
X0233343Y0080577D01*
X0233243Y0080595D01*
X0233144Y0080618D01*
X0233046Y0080644D01*
X0232949Y0080675D01*
X0232854Y0080709D01*
X0232759Y0080746D01*
X0232667Y0080788D01*
X0232576Y0080832D01*
X0232487Y0080881D01*
X0232399Y0080933D01*
X0232314Y0080988D01*
X0232231Y0081047D01*
X0232151Y0081108D01*
X0232073Y0081173D01*
X0231997Y0081241D01*
X0231925Y0081312D01*
X0231855Y0081385D01*
X0231788Y0081461D01*
X0231724Y0081540D01*
X0231663Y0081621D01*
X0231605Y0081704D01*
X0231551Y0081790D01*
X0231499Y0081878D01*
X0231452Y0081967D01*
X0231408Y0082059D01*
X0231367Y0082152D01*
X0231331Y0082246D01*
X0231298Y0082342D01*
X0231268Y0082440D01*
X0231243Y0082538D01*
X0231221Y0082637D01*
X0231204Y0082737D01*
X0231190Y0082837D01*
X0231180Y0082938D01*
X0231174Y0083040D01*
X0231172Y0083141D01*
X0231172Y0111086D02*
X0231174Y0111187D01*
X0231180Y0111289D01*
X0231190Y0111390D01*
X0231204Y0111490D01*
X0231221Y0111590D01*
X0231243Y0111689D01*
X0231268Y0111787D01*
X0231298Y0111885D01*
X0231331Y0111981D01*
X0231367Y0112075D01*
X0231408Y0112168D01*
X0231452Y0112260D01*
X0231499Y0112349D01*
X0231551Y0112437D01*
X0231605Y0112523D01*
X0231663Y0112606D01*
X0231724Y0112687D01*
X0231788Y0112766D01*
X0231855Y0112842D01*
X0231925Y0112915D01*
X0231997Y0112986D01*
X0232073Y0113054D01*
X0232151Y0113119D01*
X0232231Y0113180D01*
X0232314Y0113239D01*
X0232399Y0113294D01*
X0232487Y0113346D01*
X0232576Y0113395D01*
X0232667Y0113439D01*
X0232759Y0113481D01*
X0232854Y0113518D01*
X0232949Y0113552D01*
X0233046Y0113583D01*
X0233144Y0113609D01*
X0233243Y0113632D01*
X0233343Y0113650D01*
X0233443Y0113665D01*
X0233544Y0113676D01*
X0233645Y0113683D01*
X0233747Y0113686D01*
X0233848Y0113685D01*
X0233949Y0113680D01*
X0234051Y0113671D01*
X0234151Y0113658D01*
X0234251Y0113641D01*
X0234351Y0113621D01*
X0234449Y0113596D01*
X0234546Y0113568D01*
X0234643Y0113536D01*
X0234738Y0113500D01*
X0234831Y0113461D01*
X0234923Y0113417D01*
X0235013Y0113371D01*
X0235101Y0113321D01*
X0235187Y0113267D01*
X0235271Y0113210D01*
X0235353Y0113150D01*
X0235432Y0113087D01*
X0235509Y0113020D01*
X0235583Y0112951D01*
X0235655Y0112879D01*
X0235723Y0112804D01*
X0235789Y0112727D01*
X0235851Y0112647D01*
X0235911Y0112565D01*
X0235967Y0112480D01*
X0236019Y0112393D01*
X0236069Y0112305D01*
X0236115Y0112214D01*
X0236157Y0112122D01*
X0236195Y0112028D01*
X0236230Y0111933D01*
X0236261Y0111836D01*
X0236289Y0111738D01*
X0236312Y0111640D01*
X0236332Y0111540D01*
X0236348Y0111440D01*
X0236360Y0111339D01*
X0236368Y0111238D01*
X0236372Y0111137D01*
X0236372Y0111035D01*
X0236368Y0110934D01*
X0236360Y0110833D01*
X0236348Y0110732D01*
X0236332Y0110632D01*
X0236312Y0110532D01*
X0236289Y0110434D01*
X0236261Y0110336D01*
X0236230Y0110239D01*
X0236195Y0110144D01*
X0236157Y0110050D01*
X0236115Y0109958D01*
X0236069Y0109867D01*
X0236019Y0109779D01*
X0235967Y0109692D01*
X0235911Y0109607D01*
X0235851Y0109525D01*
X0235789Y0109445D01*
X0235723Y0109368D01*
X0235655Y0109293D01*
X0235583Y0109221D01*
X0235509Y0109152D01*
X0235432Y0109085D01*
X0235353Y0109022D01*
X0235271Y0108962D01*
X0235187Y0108905D01*
X0235101Y0108851D01*
X0235013Y0108801D01*
X0234923Y0108755D01*
X0234831Y0108711D01*
X0234738Y0108672D01*
X0234643Y0108636D01*
X0234546Y0108604D01*
X0234449Y0108576D01*
X0234351Y0108551D01*
X0234251Y0108531D01*
X0234151Y0108514D01*
X0234051Y0108501D01*
X0233949Y0108492D01*
X0233848Y0108487D01*
X0233747Y0108486D01*
X0233645Y0108489D01*
X0233544Y0108496D01*
X0233443Y0108507D01*
X0233343Y0108522D01*
X0233243Y0108540D01*
X0233144Y0108563D01*
X0233046Y0108589D01*
X0232949Y0108620D01*
X0232854Y0108654D01*
X0232759Y0108691D01*
X0232667Y0108733D01*
X0232576Y0108777D01*
X0232487Y0108826D01*
X0232399Y0108878D01*
X0232314Y0108933D01*
X0232231Y0108992D01*
X0232151Y0109053D01*
X0232073Y0109118D01*
X0231997Y0109186D01*
X0231925Y0109257D01*
X0231855Y0109330D01*
X0231788Y0109406D01*
X0231724Y0109485D01*
X0231663Y0109566D01*
X0231605Y0109649D01*
X0231551Y0109735D01*
X0231499Y0109823D01*
X0231452Y0109912D01*
X0231408Y0110004D01*
X0231367Y0110097D01*
X0231331Y0110191D01*
X0231298Y0110287D01*
X0231268Y0110385D01*
X0231243Y0110483D01*
X0231221Y0110582D01*
X0231204Y0110682D01*
X0231190Y0110782D01*
X0231180Y0110883D01*
X0231174Y0110985D01*
X0231172Y0111086D01*
X0231172Y0111094D02*
X0231174Y0111195D01*
X0231180Y0111297D01*
X0231190Y0111398D01*
X0231204Y0111498D01*
X0231221Y0111598D01*
X0231243Y0111697D01*
X0231268Y0111795D01*
X0231298Y0111893D01*
X0231331Y0111989D01*
X0231367Y0112083D01*
X0231408Y0112176D01*
X0231452Y0112268D01*
X0231499Y0112357D01*
X0231551Y0112445D01*
X0231605Y0112531D01*
X0231663Y0112614D01*
X0231724Y0112695D01*
X0231788Y0112774D01*
X0231855Y0112850D01*
X0231925Y0112923D01*
X0231997Y0112994D01*
X0232073Y0113062D01*
X0232151Y0113127D01*
X0232231Y0113188D01*
X0232314Y0113247D01*
X0232399Y0113302D01*
X0232487Y0113354D01*
X0232576Y0113403D01*
X0232667Y0113447D01*
X0232759Y0113489D01*
X0232854Y0113526D01*
X0232949Y0113560D01*
X0233046Y0113591D01*
X0233144Y0113617D01*
X0233243Y0113640D01*
X0233343Y0113658D01*
X0233443Y0113673D01*
X0233544Y0113684D01*
X0233645Y0113691D01*
X0233747Y0113694D01*
X0233848Y0113693D01*
X0233949Y0113688D01*
X0234051Y0113679D01*
X0234151Y0113666D01*
X0234251Y0113649D01*
X0234351Y0113629D01*
X0234449Y0113604D01*
X0234546Y0113576D01*
X0234643Y0113544D01*
X0234738Y0113508D01*
X0234831Y0113469D01*
X0234923Y0113425D01*
X0235013Y0113379D01*
X0235101Y0113329D01*
X0235187Y0113275D01*
X0235271Y0113218D01*
X0235353Y0113158D01*
X0235432Y0113095D01*
X0235509Y0113028D01*
X0235583Y0112959D01*
X0235655Y0112887D01*
X0235723Y0112812D01*
X0235789Y0112735D01*
X0235851Y0112655D01*
X0235911Y0112573D01*
X0235967Y0112488D01*
X0236019Y0112401D01*
X0236069Y0112313D01*
X0236115Y0112222D01*
X0236157Y0112130D01*
X0236195Y0112036D01*
X0236230Y0111941D01*
X0236261Y0111844D01*
X0236289Y0111746D01*
X0236312Y0111648D01*
X0236332Y0111548D01*
X0236348Y0111448D01*
X0236360Y0111347D01*
X0236368Y0111246D01*
X0236372Y0111145D01*
X0236372Y0111043D01*
X0236368Y0110942D01*
X0236360Y0110841D01*
X0236348Y0110740D01*
X0236332Y0110640D01*
X0236312Y0110540D01*
X0236289Y0110442D01*
X0236261Y0110344D01*
X0236230Y0110247D01*
X0236195Y0110152D01*
X0236157Y0110058D01*
X0236115Y0109966D01*
X0236069Y0109875D01*
X0236019Y0109787D01*
X0235967Y0109700D01*
X0235911Y0109615D01*
X0235851Y0109533D01*
X0235789Y0109453D01*
X0235723Y0109376D01*
X0235655Y0109301D01*
X0235583Y0109229D01*
X0235509Y0109160D01*
X0235432Y0109093D01*
X0235353Y0109030D01*
X0235271Y0108970D01*
X0235187Y0108913D01*
X0235101Y0108859D01*
X0235013Y0108809D01*
X0234923Y0108763D01*
X0234831Y0108719D01*
X0234738Y0108680D01*
X0234643Y0108644D01*
X0234546Y0108612D01*
X0234449Y0108584D01*
X0234351Y0108559D01*
X0234251Y0108539D01*
X0234151Y0108522D01*
X0234051Y0108509D01*
X0233949Y0108500D01*
X0233848Y0108495D01*
X0233747Y0108494D01*
X0233645Y0108497D01*
X0233544Y0108504D01*
X0233443Y0108515D01*
X0233343Y0108530D01*
X0233243Y0108548D01*
X0233144Y0108571D01*
X0233046Y0108597D01*
X0232949Y0108628D01*
X0232854Y0108662D01*
X0232759Y0108699D01*
X0232667Y0108741D01*
X0232576Y0108785D01*
X0232487Y0108834D01*
X0232399Y0108886D01*
X0232314Y0108941D01*
X0232231Y0109000D01*
X0232151Y0109061D01*
X0232073Y0109126D01*
X0231997Y0109194D01*
X0231925Y0109265D01*
X0231855Y0109338D01*
X0231788Y0109414D01*
X0231724Y0109493D01*
X0231663Y0109574D01*
X0231605Y0109657D01*
X0231551Y0109743D01*
X0231499Y0109831D01*
X0231452Y0109920D01*
X0231408Y0110012D01*
X0231367Y0110105D01*
X0231331Y0110199D01*
X0231298Y0110295D01*
X0231268Y0110393D01*
X0231243Y0110491D01*
X0231221Y0110590D01*
X0231204Y0110690D01*
X0231190Y0110790D01*
X0231180Y0110891D01*
X0231174Y0110993D01*
X0231172Y0111094D01*
X0134194Y0101613D02*
X0134196Y0101714D01*
X0134202Y0101816D01*
X0134212Y0101917D01*
X0134226Y0102017D01*
X0134243Y0102117D01*
X0134265Y0102216D01*
X0134290Y0102314D01*
X0134320Y0102412D01*
X0134353Y0102508D01*
X0134389Y0102602D01*
X0134430Y0102695D01*
X0134474Y0102787D01*
X0134521Y0102876D01*
X0134573Y0102964D01*
X0134627Y0103050D01*
X0134685Y0103133D01*
X0134746Y0103214D01*
X0134810Y0103293D01*
X0134877Y0103369D01*
X0134947Y0103442D01*
X0135019Y0103513D01*
X0135095Y0103581D01*
X0135173Y0103646D01*
X0135253Y0103707D01*
X0135336Y0103766D01*
X0135421Y0103821D01*
X0135509Y0103873D01*
X0135598Y0103922D01*
X0135689Y0103966D01*
X0135781Y0104008D01*
X0135876Y0104045D01*
X0135971Y0104079D01*
X0136068Y0104110D01*
X0136166Y0104136D01*
X0136265Y0104159D01*
X0136365Y0104177D01*
X0136465Y0104192D01*
X0136566Y0104203D01*
X0136667Y0104210D01*
X0136769Y0104213D01*
X0136870Y0104212D01*
X0136971Y0104207D01*
X0137073Y0104198D01*
X0137173Y0104185D01*
X0137273Y0104168D01*
X0137373Y0104148D01*
X0137471Y0104123D01*
X0137568Y0104095D01*
X0137665Y0104063D01*
X0137760Y0104027D01*
X0137853Y0103988D01*
X0137945Y0103944D01*
X0138035Y0103898D01*
X0138123Y0103848D01*
X0138209Y0103794D01*
X0138293Y0103737D01*
X0138375Y0103677D01*
X0138454Y0103614D01*
X0138531Y0103547D01*
X0138605Y0103478D01*
X0138677Y0103406D01*
X0138745Y0103331D01*
X0138811Y0103254D01*
X0138873Y0103174D01*
X0138933Y0103092D01*
X0138989Y0103007D01*
X0139041Y0102920D01*
X0139091Y0102832D01*
X0139137Y0102741D01*
X0139179Y0102649D01*
X0139217Y0102555D01*
X0139252Y0102460D01*
X0139283Y0102363D01*
X0139311Y0102265D01*
X0139334Y0102167D01*
X0139354Y0102067D01*
X0139370Y0101967D01*
X0139382Y0101866D01*
X0139390Y0101765D01*
X0139394Y0101664D01*
X0139394Y0101562D01*
X0139390Y0101461D01*
X0139382Y0101360D01*
X0139370Y0101259D01*
X0139354Y0101159D01*
X0139334Y0101059D01*
X0139311Y0100961D01*
X0139283Y0100863D01*
X0139252Y0100766D01*
X0139217Y0100671D01*
X0139179Y0100577D01*
X0139137Y0100485D01*
X0139091Y0100394D01*
X0139041Y0100306D01*
X0138989Y0100219D01*
X0138933Y0100134D01*
X0138873Y0100052D01*
X0138811Y0099972D01*
X0138745Y0099895D01*
X0138677Y0099820D01*
X0138605Y0099748D01*
X0138531Y0099679D01*
X0138454Y0099612D01*
X0138375Y0099549D01*
X0138293Y0099489D01*
X0138209Y0099432D01*
X0138123Y0099378D01*
X0138035Y0099328D01*
X0137945Y0099282D01*
X0137853Y0099238D01*
X0137760Y0099199D01*
X0137665Y0099163D01*
X0137568Y0099131D01*
X0137471Y0099103D01*
X0137373Y0099078D01*
X0137273Y0099058D01*
X0137173Y0099041D01*
X0137073Y0099028D01*
X0136971Y0099019D01*
X0136870Y0099014D01*
X0136769Y0099013D01*
X0136667Y0099016D01*
X0136566Y0099023D01*
X0136465Y0099034D01*
X0136365Y0099049D01*
X0136265Y0099067D01*
X0136166Y0099090D01*
X0136068Y0099116D01*
X0135971Y0099147D01*
X0135876Y0099181D01*
X0135781Y0099218D01*
X0135689Y0099260D01*
X0135598Y0099304D01*
X0135509Y0099353D01*
X0135421Y0099405D01*
X0135336Y0099460D01*
X0135253Y0099519D01*
X0135173Y0099580D01*
X0135095Y0099645D01*
X0135019Y0099713D01*
X0134947Y0099784D01*
X0134877Y0099857D01*
X0134810Y0099933D01*
X0134746Y0100012D01*
X0134685Y0100093D01*
X0134627Y0100176D01*
X0134573Y0100262D01*
X0134521Y0100350D01*
X0134474Y0100439D01*
X0134430Y0100531D01*
X0134389Y0100624D01*
X0134353Y0100718D01*
X0134320Y0100814D01*
X0134290Y0100912D01*
X0134265Y0101010D01*
X0134243Y0101109D01*
X0134226Y0101209D01*
X0134212Y0101309D01*
X0134202Y0101410D01*
X0134196Y0101512D01*
X0134194Y0101613D01*
X0134194Y0101606D02*
X0134196Y0101707D01*
X0134202Y0101809D01*
X0134212Y0101910D01*
X0134226Y0102010D01*
X0134243Y0102110D01*
X0134265Y0102209D01*
X0134290Y0102307D01*
X0134320Y0102405D01*
X0134353Y0102501D01*
X0134389Y0102595D01*
X0134430Y0102688D01*
X0134474Y0102780D01*
X0134521Y0102869D01*
X0134573Y0102957D01*
X0134627Y0103043D01*
X0134685Y0103126D01*
X0134746Y0103207D01*
X0134810Y0103286D01*
X0134877Y0103362D01*
X0134947Y0103435D01*
X0135019Y0103506D01*
X0135095Y0103574D01*
X0135173Y0103639D01*
X0135253Y0103700D01*
X0135336Y0103759D01*
X0135421Y0103814D01*
X0135509Y0103866D01*
X0135598Y0103915D01*
X0135689Y0103959D01*
X0135781Y0104001D01*
X0135876Y0104038D01*
X0135971Y0104072D01*
X0136068Y0104103D01*
X0136166Y0104129D01*
X0136265Y0104152D01*
X0136365Y0104170D01*
X0136465Y0104185D01*
X0136566Y0104196D01*
X0136667Y0104203D01*
X0136769Y0104206D01*
X0136870Y0104205D01*
X0136971Y0104200D01*
X0137073Y0104191D01*
X0137173Y0104178D01*
X0137273Y0104161D01*
X0137373Y0104141D01*
X0137471Y0104116D01*
X0137568Y0104088D01*
X0137665Y0104056D01*
X0137760Y0104020D01*
X0137853Y0103981D01*
X0137945Y0103937D01*
X0138035Y0103891D01*
X0138123Y0103841D01*
X0138209Y0103787D01*
X0138293Y0103730D01*
X0138375Y0103670D01*
X0138454Y0103607D01*
X0138531Y0103540D01*
X0138605Y0103471D01*
X0138677Y0103399D01*
X0138745Y0103324D01*
X0138811Y0103247D01*
X0138873Y0103167D01*
X0138933Y0103085D01*
X0138989Y0103000D01*
X0139041Y0102913D01*
X0139091Y0102825D01*
X0139137Y0102734D01*
X0139179Y0102642D01*
X0139217Y0102548D01*
X0139252Y0102453D01*
X0139283Y0102356D01*
X0139311Y0102258D01*
X0139334Y0102160D01*
X0139354Y0102060D01*
X0139370Y0101960D01*
X0139382Y0101859D01*
X0139390Y0101758D01*
X0139394Y0101657D01*
X0139394Y0101555D01*
X0139390Y0101454D01*
X0139382Y0101353D01*
X0139370Y0101252D01*
X0139354Y0101152D01*
X0139334Y0101052D01*
X0139311Y0100954D01*
X0139283Y0100856D01*
X0139252Y0100759D01*
X0139217Y0100664D01*
X0139179Y0100570D01*
X0139137Y0100478D01*
X0139091Y0100387D01*
X0139041Y0100299D01*
X0138989Y0100212D01*
X0138933Y0100127D01*
X0138873Y0100045D01*
X0138811Y0099965D01*
X0138745Y0099888D01*
X0138677Y0099813D01*
X0138605Y0099741D01*
X0138531Y0099672D01*
X0138454Y0099605D01*
X0138375Y0099542D01*
X0138293Y0099482D01*
X0138209Y0099425D01*
X0138123Y0099371D01*
X0138035Y0099321D01*
X0137945Y0099275D01*
X0137853Y0099231D01*
X0137760Y0099192D01*
X0137665Y0099156D01*
X0137568Y0099124D01*
X0137471Y0099096D01*
X0137373Y0099071D01*
X0137273Y0099051D01*
X0137173Y0099034D01*
X0137073Y0099021D01*
X0136971Y0099012D01*
X0136870Y0099007D01*
X0136769Y0099006D01*
X0136667Y0099009D01*
X0136566Y0099016D01*
X0136465Y0099027D01*
X0136365Y0099042D01*
X0136265Y0099060D01*
X0136166Y0099083D01*
X0136068Y0099109D01*
X0135971Y0099140D01*
X0135876Y0099174D01*
X0135781Y0099211D01*
X0135689Y0099253D01*
X0135598Y0099297D01*
X0135509Y0099346D01*
X0135421Y0099398D01*
X0135336Y0099453D01*
X0135253Y0099512D01*
X0135173Y0099573D01*
X0135095Y0099638D01*
X0135019Y0099706D01*
X0134947Y0099777D01*
X0134877Y0099850D01*
X0134810Y0099926D01*
X0134746Y0100005D01*
X0134685Y0100086D01*
X0134627Y0100169D01*
X0134573Y0100255D01*
X0134521Y0100343D01*
X0134474Y0100432D01*
X0134430Y0100524D01*
X0134389Y0100617D01*
X0134353Y0100711D01*
X0134320Y0100807D01*
X0134290Y0100905D01*
X0134265Y0101003D01*
X0134243Y0101102D01*
X0134226Y0101202D01*
X0134212Y0101302D01*
X0134202Y0101403D01*
X0134196Y0101505D01*
X0134194Y0101606D01*
D11*
X0113205Y0031539D03*
X0108480Y0031539D03*
X0103756Y0031539D03*
X0099031Y0031539D03*
X0099031Y0025634D03*
X0103756Y0025634D03*
X0108480Y0025634D03*
X0113205Y0025634D03*
D12*
X0107496Y0050634D03*
X0100803Y0050634D03*
X0100803Y0056146D03*
X0107496Y0056146D03*
X0107496Y0067169D03*
X0100803Y0067169D03*
X0100803Y0072681D03*
X0107496Y0072681D03*
X0107496Y0078193D03*
X0107496Y0083705D03*
X0100803Y0083705D03*
X0100803Y0078193D03*
D13*
X0092713Y0078193D03*
X0092713Y0083705D03*
X0092713Y0089217D03*
X0092713Y0072681D03*
X0092713Y0067169D03*
X0092713Y0061657D03*
X0092713Y0056146D03*
X0092713Y0050634D03*
D14*
X0083677Y0045154D03*
X0078165Y0045142D03*
X0072654Y0045142D03*
X0067142Y0045142D03*
X0061630Y0045142D03*
X0056118Y0045142D03*
X0050606Y0045142D03*
X0045094Y0045142D03*
X0045094Y0094709D03*
X0050606Y0094709D03*
X0056118Y0094709D03*
X0061630Y0094709D03*
X0067142Y0094709D03*
X0072654Y0094709D03*
X0078165Y0094709D03*
X0083677Y0094709D03*
D15*
X0165567Y0119138D03*
X0175567Y0119138D03*
X0185567Y0119138D03*
X0195567Y0119138D03*
X0205567Y0119138D03*
X0215567Y0119138D03*
D16*
X0214717Y0109972D03*
X0214717Y0103280D03*
X0181709Y0103193D03*
X0175685Y0103280D03*
X0175685Y0109972D03*
X0181709Y0109886D03*
D17*
X0145652Y0095511D03*
X0145652Y0091574D03*
X0145652Y0087637D03*
X0145652Y0083700D03*
X0145652Y0079763D03*
X0145652Y0075826D03*
X0145652Y0071889D03*
X0145652Y0067952D03*
X0145652Y0064015D03*
X0145652Y0060078D03*
X0145652Y0056141D03*
X0145652Y0052204D03*
X0145652Y0048267D03*
X0145652Y0044330D03*
X0145652Y0040393D03*
X0145652Y0036456D03*
X0127935Y0038424D03*
X0127935Y0042361D03*
X0127935Y0046298D03*
X0127935Y0050235D03*
X0127935Y0054172D03*
X0127935Y0058109D03*
X0127935Y0062046D03*
X0127935Y0065983D03*
X0127935Y0069920D03*
X0127935Y0073857D03*
X0127935Y0077794D03*
X0127935Y0081731D03*
X0127935Y0085669D03*
X0127935Y0089606D03*
X0127935Y0093543D03*
X0224913Y0095149D03*
X0224913Y0091212D03*
X0224913Y0099086D03*
X0224913Y0103023D03*
X0242630Y0104991D03*
X0242630Y0101054D03*
X0242630Y0097117D03*
X0242630Y0093180D03*
X0242630Y0089243D03*
D18*
X0233772Y0077826D03*
X0233772Y0116409D03*
X0136794Y0106928D03*
X0136794Y0025039D03*
D19*
X0222854Y0054461D03*
X0222854Y0069461D03*
X0244854Y0069461D03*
X0244854Y0054461D03*
D20*
X0244701Y0033311D03*
X0234701Y0033311D03*
X0224701Y0033311D03*
X0214701Y0033311D03*
X0204701Y0033311D03*
X0194701Y0033311D03*
X0194701Y0023311D03*
X0204701Y0023311D03*
X0214701Y0023311D03*
X0224701Y0023311D03*
X0234701Y0023311D03*
X0244701Y0023311D03*
D21*
X0245094Y0042366D03*
X0237220Y0050240D03*
X0245094Y0062051D03*
X0237220Y0069925D03*
X0221079Y0073469D03*
X0205724Y0073862D03*
X0199819Y0075831D03*
X0205724Y0079768D03*
X0208874Y0089610D03*
X0219898Y0091185D03*
X0219898Y0095122D03*
X0219898Y0099059D03*
X0219898Y0102996D03*
X0245094Y0117169D03*
X0247457Y0104965D03*
X0247457Y0101028D03*
X0247457Y0097091D03*
X0247457Y0093154D03*
X0247457Y0089217D03*
X0217535Y0062051D03*
X0213992Y0053783D03*
X0219504Y0050240D03*
X0187220Y0071500D03*
X0187220Y0075831D03*
X0189976Y0087642D03*
X0175803Y0099453D03*
X0185252Y0102996D03*
X0191945Y0107327D03*
X0168323Y0107327D03*
X0150606Y0095516D03*
X0150606Y0091579D03*
X0150606Y0087642D03*
X0150606Y0087629D03*
X0150606Y0083705D03*
X0150606Y0079768D03*
X0150606Y0075831D03*
X0150606Y0071894D03*
X0150606Y0071881D03*
X0150606Y0067957D03*
X0150606Y0067944D03*
X0150606Y0064020D03*
X0150606Y0060083D03*
X0150606Y0056146D03*
X0150606Y0052209D03*
X0150606Y0048272D03*
X0150606Y0044335D03*
X0150606Y0040398D03*
X0150606Y0036461D03*
X0158480Y0038429D03*
X0166354Y0046303D03*
X0158480Y0054177D03*
X0178953Y0043547D03*
X0178165Y0030555D03*
X0170291Y0022681D03*
X0186039Y0022681D03*
X0148638Y0024650D03*
X0123047Y0038429D03*
X0123047Y0042366D03*
X0123047Y0046303D03*
X0123047Y0050240D03*
X0123047Y0054177D03*
X0123047Y0058114D03*
X0123047Y0062051D03*
X0123047Y0065988D03*
X0123047Y0069925D03*
X0123047Y0073862D03*
X0123047Y0077799D03*
X0123047Y0081736D03*
X0123047Y0085673D03*
X0123047Y0089610D03*
X0123047Y0093547D03*
X0117142Y0093547D03*
X0115173Y0098665D03*
X0119110Y0103390D03*
X0111236Y0109295D03*
X0083677Y0109295D03*
X0063992Y0121106D03*
X0056118Y0121106D03*
X0048244Y0121106D03*
X0048244Y0113232D03*
X0056118Y0113232D03*
X0048244Y0105358D03*
X0061630Y0101421D03*
X0048244Y0085673D03*
X0056118Y0081736D03*
X0056118Y0075831D03*
X0060055Y0069925D03*
X0063992Y0062051D03*
X0060055Y0054177D03*
X0071866Y0054177D03*
X0079740Y0062051D03*
X0078165Y0073862D03*
X0071866Y0073862D03*
X0075016Y0081736D03*
X0067142Y0082130D03*
X0083677Y0085673D03*
X0103362Y0062051D03*
X0089583Y0044335D03*
X0067929Y0034492D03*
X0081709Y0024650D03*
X0093520Y0024650D03*
X0063205Y0020713D03*
X0057299Y0021894D03*
X0048244Y0024650D03*
X0048244Y0018744D03*
X0048244Y0054177D03*
X0048244Y0062051D03*
X0048244Y0069925D03*
X0048244Y0077799D03*
X0149031Y0104965D03*
X0156512Y0121500D03*
D22*
X0154889Y0120409D02*
X0160670Y0120409D01*
X0160641Y0120320D02*
X0160517Y0119535D01*
X0160517Y0119488D01*
X0165217Y0119488D01*
X0165217Y0124188D01*
X0165169Y0124188D01*
X0164384Y0124063D01*
X0163628Y0123818D01*
X0162920Y0123457D01*
X0162277Y0122990D01*
X0161715Y0122428D01*
X0161248Y0121785D01*
X0160887Y0121076D01*
X0160641Y0120320D01*
X0160545Y0119711D02*
X0155587Y0119711D01*
X0156286Y0119012D02*
X0165217Y0119012D01*
X0165217Y0118788D02*
X0160517Y0118788D01*
X0160517Y0118740D01*
X0160641Y0117955D01*
X0160887Y0117199D01*
X0161248Y0116491D01*
X0161715Y0115848D01*
X0162277Y0115286D01*
X0162920Y0114819D01*
X0163628Y0114458D01*
X0164384Y0114212D01*
X0165169Y0114088D01*
X0165217Y0114088D01*
X0165217Y0118788D01*
X0165217Y0119488D01*
X0165917Y0119488D01*
X0165917Y0124188D01*
X0165964Y0124188D01*
X0166749Y0124063D01*
X0167505Y0123818D01*
X0168214Y0123457D01*
X0168857Y0122990D01*
X0169419Y0122428D01*
X0169886Y0121785D01*
X0170247Y0121076D01*
X0170493Y0120320D01*
X0170520Y0120149D01*
X0171286Y0121998D01*
X0172706Y0123419D01*
X0174562Y0124188D01*
X0176571Y0124188D01*
X0178428Y0123419D01*
X0179848Y0121998D01*
X0180567Y0120263D01*
X0181286Y0121998D01*
X0182706Y0123419D01*
X0184562Y0124188D01*
X0186571Y0124188D01*
X0188428Y0123419D01*
X0189848Y0121998D01*
X0190567Y0120263D01*
X0191286Y0121998D01*
X0192706Y0123419D01*
X0194562Y0124188D01*
X0196571Y0124188D01*
X0198428Y0123419D01*
X0199848Y0121998D01*
X0200567Y0120263D01*
X0201286Y0121998D01*
X0202706Y0123419D01*
X0204562Y0124188D01*
X0206571Y0124188D01*
X0208428Y0123419D01*
X0209848Y0121998D01*
X0210567Y0120263D01*
X0211286Y0121998D01*
X0212706Y0123419D01*
X0214562Y0124188D01*
X0216571Y0124188D01*
X0218428Y0123419D01*
X0219848Y0121998D01*
X0220617Y0120142D01*
X0220617Y0118133D01*
X0219848Y0116277D01*
X0218428Y0114857D01*
X0217267Y0114376D01*
X0217267Y0113291D01*
X0217441Y0113291D01*
X0218232Y0112500D01*
X0218232Y0107445D01*
X0217441Y0106654D01*
X0211992Y0106654D01*
X0211201Y0107445D01*
X0211201Y0112500D01*
X0211992Y0113291D01*
X0213867Y0113291D01*
X0213867Y0114376D01*
X0212706Y0114857D01*
X0211286Y0116277D01*
X0210567Y0118013D01*
X0209848Y0116277D01*
X0208428Y0114857D01*
X0207267Y0114376D01*
X0207267Y0098234D01*
X0211201Y0102168D01*
X0211201Y0105807D01*
X0211992Y0106598D01*
X0217441Y0106598D01*
X0218232Y0105807D01*
X0218232Y0105484D01*
X0218234Y0105486D01*
X0219313Y0105933D01*
X0220482Y0105933D01*
X0221261Y0105611D01*
X0221401Y0105751D01*
X0228425Y0105751D01*
X0229216Y0104960D01*
X0229216Y0101086D01*
X0229185Y0101054D01*
X0229216Y0101023D01*
X0229216Y0097149D01*
X0229185Y0097117D01*
X0229216Y0097086D01*
X0229216Y0093212D01*
X0229121Y0093116D01*
X0229124Y0093111D01*
X0229216Y0092767D01*
X0229216Y0091551D01*
X0225252Y0091551D01*
X0225252Y0090873D01*
X0225252Y0088484D01*
X0228044Y0088484D01*
X0228387Y0088576D01*
X0228695Y0088754D01*
X0228946Y0089005D01*
X0229124Y0089313D01*
X0229216Y0089656D01*
X0229216Y0090873D01*
X0225252Y0090873D01*
X0224574Y0090873D01*
X0220611Y0090873D01*
X0220611Y0089656D01*
X0220703Y0089313D01*
X0220880Y0089005D01*
X0221132Y0088754D01*
X0221440Y0088576D01*
X0221783Y0088484D01*
X0224574Y0088484D01*
X0224574Y0090873D01*
X0224574Y0091551D01*
X0220611Y0091551D01*
X0220611Y0092238D01*
X0220482Y0092185D01*
X0219313Y0092185D01*
X0218234Y0092632D01*
X0217407Y0093458D01*
X0216960Y0094538D01*
X0216960Y0095706D01*
X0217407Y0096786D01*
X0217712Y0097091D01*
X0217407Y0097395D01*
X0216960Y0098475D01*
X0216960Y0099643D01*
X0217092Y0099961D01*
X0213802Y0099961D01*
X0210574Y0096733D01*
X0210574Y0092064D01*
X0211364Y0091274D01*
X0211811Y0090195D01*
X0211811Y0089026D01*
X0211364Y0087946D01*
X0210538Y0087120D01*
X0209458Y0086673D01*
X0208290Y0086673D01*
X0207267Y0087097D01*
X0207267Y0082308D01*
X0207388Y0082258D01*
X0208215Y0081432D01*
X0208662Y0080352D01*
X0208662Y0079183D01*
X0208215Y0078104D01*
X0207388Y0077278D01*
X0206309Y0076830D01*
X0205140Y0076830D01*
X0204060Y0077278D01*
X0203234Y0078104D01*
X0202787Y0079183D01*
X0202787Y0080352D01*
X0203234Y0081432D01*
X0203867Y0082064D01*
X0203867Y0114376D01*
X0202706Y0114857D01*
X0201286Y0116277D01*
X0200567Y0118013D01*
X0200136Y0116973D01*
X0201519Y0115590D01*
X0201519Y0078285D01*
X0202309Y0077495D01*
X0202756Y0076415D01*
X0202756Y0075246D01*
X0202309Y0074167D01*
X0201483Y0073341D01*
X0200403Y0072893D01*
X0199235Y0072893D01*
X0198155Y0073341D01*
X0197329Y0074167D01*
X0196881Y0075246D01*
X0196881Y0076415D01*
X0197329Y0077495D01*
X0198119Y0078285D01*
X0198119Y0114182D01*
X0197732Y0114569D01*
X0196571Y0114088D01*
X0194562Y0114088D01*
X0192706Y0114857D01*
X0191286Y0116277D01*
X0190567Y0118013D01*
X0189848Y0116277D01*
X0188428Y0114857D01*
X0186571Y0114088D01*
X0184562Y0114088D01*
X0183409Y0114566D01*
X0183409Y0113204D01*
X0184433Y0113204D01*
X0185224Y0112414D01*
X0185224Y0107358D01*
X0184433Y0106567D01*
X0178984Y0106567D01*
X0178654Y0106898D01*
X0178410Y0106654D01*
X0172960Y0106654D01*
X0172170Y0107445D01*
X0172170Y0112500D01*
X0172960Y0113291D01*
X0173867Y0113291D01*
X0173867Y0114376D01*
X0172706Y0114857D01*
X0171286Y0116277D01*
X0170520Y0118127D01*
X0170493Y0117955D01*
X0170247Y0117199D01*
X0169886Y0116491D01*
X0169419Y0115848D01*
X0168857Y0115286D01*
X0168214Y0114819D01*
X0167505Y0114458D01*
X0166749Y0114212D01*
X0165964Y0114088D01*
X0165917Y0114088D01*
X0165917Y0118788D01*
X0165217Y0118788D01*
X0165217Y0118314D02*
X0165917Y0118314D01*
X0165917Y0117615D02*
X0165217Y0117615D01*
X0165217Y0116917D02*
X0165917Y0116917D01*
X0165917Y0116218D02*
X0165217Y0116218D01*
X0165217Y0115520D02*
X0165917Y0115520D01*
X0165917Y0114821D02*
X0165217Y0114821D01*
X0165217Y0114123D02*
X0165917Y0114123D01*
X0166185Y0114123D02*
X0173867Y0114123D01*
X0173867Y0113424D02*
X0161874Y0113424D01*
X0162334Y0112964D02*
X0150636Y0124662D01*
X0252587Y0124662D01*
X0252587Y0015189D01*
X0198982Y0015189D01*
X0199865Y0016071D01*
X0202332Y0018538D01*
X0202609Y0018261D01*
X0206793Y0018261D01*
X0209701Y0021169D01*
X0212609Y0018261D01*
X0216793Y0018261D01*
X0219701Y0021169D01*
X0222609Y0018261D01*
X0224351Y0018261D01*
X0224351Y0022961D01*
X0225051Y0022961D01*
X0225051Y0018261D01*
X0226793Y0018261D01*
X0229701Y0021169D01*
X0232609Y0018261D01*
X0236793Y0018261D01*
X0239701Y0021169D01*
X0242609Y0018261D01*
X0246793Y0018261D01*
X0249751Y0021219D01*
X0249751Y0025403D01*
X0246843Y0028311D01*
X0249751Y0031219D01*
X0249751Y0035403D01*
X0246793Y0038361D01*
X0242609Y0038361D01*
X0239701Y0035453D01*
X0236793Y0038361D01*
X0234181Y0038361D01*
X0226507Y0046035D01*
X0219421Y0046035D01*
X0214600Y0050856D01*
X0215656Y0051293D01*
X0216482Y0052120D01*
X0216930Y0053199D01*
X0216930Y0054368D01*
X0216482Y0055447D01*
X0215656Y0056274D01*
X0214576Y0056721D01*
X0213459Y0056721D01*
X0163330Y0106850D01*
X0163330Y0111968D01*
X0162334Y0112964D01*
X0162572Y0112726D02*
X0172395Y0112726D01*
X0172170Y0112027D02*
X0163271Y0112027D01*
X0163330Y0111329D02*
X0172170Y0111329D01*
X0172170Y0110630D02*
X0163330Y0110630D01*
X0163330Y0109932D02*
X0172170Y0109932D01*
X0172170Y0109233D02*
X0163330Y0109233D01*
X0163330Y0108535D02*
X0172170Y0108535D01*
X0172170Y0107836D02*
X0163330Y0107836D01*
X0163330Y0107138D02*
X0172477Y0107138D01*
X0172960Y0106598D02*
X0172170Y0105807D01*
X0172170Y0100752D01*
X0172871Y0100050D01*
X0172866Y0100037D01*
X0172866Y0098868D01*
X0173313Y0097789D01*
X0174139Y0096963D01*
X0175219Y0096515D01*
X0176387Y0096515D01*
X0177467Y0096963D01*
X0178293Y0097789D01*
X0178741Y0098868D01*
X0178741Y0100037D01*
X0178683Y0100175D01*
X0178984Y0099874D01*
X0184433Y0099874D01*
X0184632Y0100073D01*
X0184668Y0100059D01*
X0185836Y0100059D01*
X0186916Y0100506D01*
X0187742Y0101332D01*
X0188189Y0102412D01*
X0188189Y0103580D01*
X0187742Y0104660D01*
X0186916Y0105486D01*
X0185836Y0105933D01*
X0185011Y0105933D01*
X0184433Y0106511D01*
X0178984Y0106511D01*
X0178740Y0106267D01*
X0178410Y0106598D01*
X0172960Y0106598D01*
X0172802Y0106439D02*
X0163741Y0106439D01*
X0164439Y0105741D02*
X0172170Y0105741D01*
X0172170Y0105042D02*
X0165138Y0105042D01*
X0165836Y0104344D02*
X0172170Y0104344D01*
X0172170Y0103645D02*
X0166535Y0103645D01*
X0167233Y0102947D02*
X0172170Y0102947D01*
X0172170Y0102248D02*
X0167932Y0102248D01*
X0168630Y0101550D02*
X0172170Y0101550D01*
X0172170Y0100851D02*
X0169329Y0100851D01*
X0170027Y0100152D02*
X0172769Y0100152D01*
X0172866Y0099454D02*
X0170726Y0099454D01*
X0171424Y0098755D02*
X0172913Y0098755D01*
X0173202Y0098057D02*
X0172123Y0098057D01*
X0172821Y0097358D02*
X0173743Y0097358D01*
X0173520Y0096660D02*
X0174870Y0096660D01*
X0174218Y0095961D02*
X0198119Y0095961D01*
X0198119Y0095263D02*
X0174917Y0095263D01*
X0175615Y0094564D02*
X0198119Y0094564D01*
X0198119Y0093866D02*
X0176314Y0093866D01*
X0177012Y0093167D02*
X0198119Y0093167D01*
X0198119Y0092469D02*
X0177711Y0092469D01*
X0178409Y0091770D02*
X0198119Y0091770D01*
X0198119Y0091072D02*
X0179108Y0091072D01*
X0179806Y0090373D02*
X0198119Y0090373D01*
X0198119Y0089675D02*
X0180505Y0089675D01*
X0181203Y0088976D02*
X0198119Y0088976D01*
X0198119Y0088278D02*
X0181902Y0088278D01*
X0182600Y0087579D02*
X0198119Y0087579D01*
X0198119Y0086881D02*
X0183299Y0086881D01*
X0183997Y0086182D02*
X0198119Y0086182D01*
X0198119Y0085484D02*
X0184696Y0085484D01*
X0185394Y0084785D02*
X0198119Y0084785D01*
X0198119Y0084087D02*
X0186093Y0084087D01*
X0186792Y0083388D02*
X0198119Y0083388D01*
X0198119Y0082690D02*
X0187490Y0082690D01*
X0188189Y0081991D02*
X0198119Y0081991D01*
X0198119Y0081293D02*
X0188887Y0081293D01*
X0189586Y0080594D02*
X0198119Y0080594D01*
X0198119Y0079896D02*
X0190284Y0079896D01*
X0190983Y0079197D02*
X0198119Y0079197D01*
X0198119Y0078499D02*
X0191681Y0078499D01*
X0192380Y0077800D02*
X0197634Y0077800D01*
X0197166Y0077102D02*
X0193078Y0077102D01*
X0193777Y0076403D02*
X0196881Y0076403D01*
X0196881Y0075705D02*
X0194475Y0075705D01*
X0195174Y0075006D02*
X0196981Y0075006D01*
X0197270Y0074308D02*
X0195872Y0074308D01*
X0196571Y0073609D02*
X0197886Y0073609D01*
X0197269Y0072911D02*
X0199193Y0072911D01*
X0200445Y0072911D02*
X0218141Y0072911D01*
X0218141Y0072884D02*
X0218589Y0071805D01*
X0218689Y0071704D01*
X0218504Y0071520D01*
X0218504Y0067401D01*
X0219295Y0066611D01*
X0226414Y0066611D01*
X0227204Y0067401D01*
X0227204Y0071520D01*
X0226414Y0072311D01*
X0223779Y0072311D01*
X0224016Y0072884D01*
X0224016Y0074053D01*
X0223569Y0075132D01*
X0222743Y0075959D01*
X0221663Y0076406D01*
X0220494Y0076406D01*
X0219415Y0075959D01*
X0218589Y0075132D01*
X0218141Y0074053D01*
X0218141Y0072884D01*
X0218141Y0073609D02*
X0201751Y0073609D01*
X0202367Y0074308D02*
X0218247Y0074308D01*
X0218536Y0075006D02*
X0202657Y0075006D01*
X0202756Y0075705D02*
X0219161Y0075705D01*
X0220488Y0076403D02*
X0202756Y0076403D01*
X0202472Y0077102D02*
X0204485Y0077102D01*
X0203538Y0077800D02*
X0202004Y0077800D01*
X0201519Y0078499D02*
X0203071Y0078499D01*
X0202787Y0079197D02*
X0201519Y0079197D01*
X0201519Y0079896D02*
X0202787Y0079896D01*
X0202887Y0080594D02*
X0201519Y0080594D01*
X0201519Y0081293D02*
X0203177Y0081293D01*
X0203794Y0081991D02*
X0201519Y0081991D01*
X0201519Y0082690D02*
X0203867Y0082690D01*
X0203867Y0083388D02*
X0201519Y0083388D01*
X0201519Y0084087D02*
X0203867Y0084087D01*
X0203867Y0084785D02*
X0201519Y0084785D01*
X0201519Y0085484D02*
X0203867Y0085484D01*
X0203867Y0086182D02*
X0201519Y0086182D01*
X0201519Y0086881D02*
X0203867Y0086881D01*
X0203867Y0087579D02*
X0201519Y0087579D01*
X0201519Y0088278D02*
X0203867Y0088278D01*
X0203867Y0088976D02*
X0201519Y0088976D01*
X0201519Y0089675D02*
X0203867Y0089675D01*
X0203867Y0090373D02*
X0201519Y0090373D01*
X0201519Y0091072D02*
X0203867Y0091072D01*
X0203867Y0091770D02*
X0201519Y0091770D01*
X0201519Y0092469D02*
X0203867Y0092469D01*
X0203867Y0093167D02*
X0201519Y0093167D01*
X0201519Y0093866D02*
X0203867Y0093866D01*
X0203867Y0094564D02*
X0201519Y0094564D01*
X0201519Y0095263D02*
X0203867Y0095263D01*
X0203867Y0095961D02*
X0201519Y0095961D01*
X0201519Y0096660D02*
X0203867Y0096660D01*
X0203867Y0097358D02*
X0201519Y0097358D01*
X0201519Y0098057D02*
X0203867Y0098057D01*
X0203867Y0098755D02*
X0201519Y0098755D01*
X0201519Y0099454D02*
X0203867Y0099454D01*
X0203867Y0100152D02*
X0201519Y0100152D01*
X0201519Y0100851D02*
X0203867Y0100851D01*
X0203867Y0101550D02*
X0201519Y0101550D01*
X0201519Y0102248D02*
X0203867Y0102248D01*
X0203867Y0102947D02*
X0201519Y0102947D01*
X0201519Y0103645D02*
X0203867Y0103645D01*
X0203867Y0104344D02*
X0201519Y0104344D01*
X0201519Y0105042D02*
X0203867Y0105042D01*
X0203867Y0105741D02*
X0201519Y0105741D01*
X0201519Y0106439D02*
X0203867Y0106439D01*
X0203867Y0107138D02*
X0201519Y0107138D01*
X0201519Y0107836D02*
X0203867Y0107836D01*
X0203867Y0108535D02*
X0201519Y0108535D01*
X0201519Y0109233D02*
X0203867Y0109233D01*
X0203867Y0109932D02*
X0201519Y0109932D01*
X0201519Y0110630D02*
X0203867Y0110630D01*
X0203867Y0111329D02*
X0201519Y0111329D01*
X0201519Y0112027D02*
X0203867Y0112027D01*
X0203867Y0112726D02*
X0201519Y0112726D01*
X0201519Y0113424D02*
X0203867Y0113424D01*
X0203867Y0114123D02*
X0201519Y0114123D01*
X0201519Y0114821D02*
X0202792Y0114821D01*
X0202043Y0115520D02*
X0201519Y0115520D01*
X0201345Y0116218D02*
X0200891Y0116218D01*
X0201021Y0116917D02*
X0200192Y0116917D01*
X0200402Y0117615D02*
X0200731Y0117615D01*
X0199819Y0114886D02*
X0195567Y0119138D01*
X0190917Y0121108D02*
X0190217Y0121108D01*
X0189928Y0121806D02*
X0191206Y0121806D01*
X0191792Y0122505D02*
X0189342Y0122505D01*
X0188643Y0123203D02*
X0192491Y0123203D01*
X0193872Y0123902D02*
X0187262Y0123902D01*
X0183872Y0123902D02*
X0177262Y0123902D01*
X0178643Y0123203D02*
X0182491Y0123203D01*
X0181792Y0122505D02*
X0179342Y0122505D01*
X0179928Y0121806D02*
X0181206Y0121806D01*
X0180917Y0121108D02*
X0180217Y0121108D01*
X0180506Y0120409D02*
X0180628Y0120409D01*
X0185567Y0119138D02*
X0181709Y0115280D01*
X0181709Y0109886D01*
X0185224Y0109932D02*
X0198119Y0109932D01*
X0198119Y0110630D02*
X0185224Y0110630D01*
X0185224Y0111329D02*
X0198119Y0111329D01*
X0198119Y0112027D02*
X0185224Y0112027D01*
X0184912Y0112726D02*
X0198119Y0112726D01*
X0198119Y0113424D02*
X0183409Y0113424D01*
X0183409Y0114123D02*
X0184478Y0114123D01*
X0186656Y0114123D02*
X0194478Y0114123D01*
X0192792Y0114821D02*
X0188342Y0114821D01*
X0189091Y0115520D02*
X0192043Y0115520D01*
X0191345Y0116218D02*
X0189789Y0116218D01*
X0190113Y0116917D02*
X0191021Y0116917D01*
X0190731Y0117615D02*
X0190402Y0117615D01*
X0190506Y0120409D02*
X0190628Y0120409D01*
X0197262Y0123902D02*
X0203872Y0123902D01*
X0202491Y0123203D02*
X0198643Y0123203D01*
X0199342Y0122505D02*
X0201792Y0122505D01*
X0201206Y0121806D02*
X0199928Y0121806D01*
X0200217Y0121108D02*
X0200917Y0121108D01*
X0200628Y0120409D02*
X0200506Y0120409D01*
X0205567Y0119138D02*
X0205567Y0079925D01*
X0205724Y0079768D01*
X0206964Y0077102D02*
X0225729Y0077102D01*
X0225729Y0077800D02*
X0207911Y0077800D01*
X0208378Y0078499D02*
X0225729Y0078499D01*
X0225729Y0079197D02*
X0208662Y0079197D01*
X0208662Y0079896D02*
X0225729Y0079896D01*
X0225729Y0080594D02*
X0208561Y0080594D01*
X0208272Y0081293D02*
X0226077Y0081293D01*
X0225729Y0080944D02*
X0225729Y0074708D01*
X0226520Y0073917D01*
X0241024Y0073917D01*
X0241815Y0074708D01*
X0241815Y0080944D01*
X0241024Y0081735D01*
X0238550Y0081735D01*
X0238722Y0082148D01*
X0238722Y0084126D01*
X0237968Y0085945D01*
X0236576Y0087337D01*
X0234756Y0088091D01*
X0232787Y0088091D01*
X0230968Y0087337D01*
X0229575Y0085945D01*
X0228822Y0084126D01*
X0228822Y0082148D01*
X0228993Y0081735D01*
X0226520Y0081735D01*
X0225729Y0080944D01*
X0228887Y0081991D02*
X0207655Y0081991D01*
X0207267Y0082690D02*
X0228822Y0082690D01*
X0228822Y0083388D02*
X0207267Y0083388D01*
X0207267Y0084087D02*
X0228822Y0084087D01*
X0229095Y0084785D02*
X0207267Y0084785D01*
X0207267Y0085484D02*
X0229384Y0085484D01*
X0229813Y0086182D02*
X0207267Y0086182D01*
X0207267Y0086881D02*
X0207788Y0086881D01*
X0209960Y0086881D02*
X0230511Y0086881D01*
X0231552Y0087579D02*
X0210997Y0087579D01*
X0211502Y0088278D02*
X0238327Y0088278D01*
X0238327Y0088976D02*
X0228918Y0088976D01*
X0229216Y0089675D02*
X0238327Y0089675D01*
X0238327Y0090373D02*
X0229216Y0090373D01*
X0229216Y0091770D02*
X0238327Y0091770D01*
X0238327Y0091243D02*
X0238359Y0091212D01*
X0238327Y0091180D01*
X0238327Y0087306D01*
X0239118Y0086515D01*
X0246142Y0086515D01*
X0246189Y0086562D01*
X0246872Y0086279D01*
X0248041Y0086279D01*
X0249121Y0086726D01*
X0249947Y0087553D01*
X0250394Y0088632D01*
X0250394Y0089801D01*
X0249947Y0090880D01*
X0249642Y0091185D01*
X0249947Y0091490D01*
X0250394Y0092569D01*
X0250394Y0093738D01*
X0249947Y0094817D01*
X0249642Y0095122D01*
X0249947Y0095427D01*
X0250394Y0096506D01*
X0250394Y0097675D01*
X0249947Y0098754D01*
X0249642Y0099059D01*
X0249947Y0099364D01*
X0250394Y0100443D01*
X0250394Y0101612D01*
X0249947Y0102691D01*
X0249642Y0102996D01*
X0249947Y0103301D01*
X0250394Y0104380D01*
X0250394Y0105549D01*
X0249947Y0106628D01*
X0249121Y0107455D01*
X0248041Y0107902D01*
X0246872Y0107902D01*
X0246227Y0107634D01*
X0246142Y0107719D01*
X0239118Y0107719D01*
X0238327Y0106928D01*
X0238327Y0103054D01*
X0238359Y0103023D01*
X0238327Y0102991D01*
X0238327Y0099117D01*
X0238359Y0099086D01*
X0238327Y0099054D01*
X0238327Y0095180D01*
X0238359Y0095149D01*
X0238327Y0095117D01*
X0238327Y0091243D01*
X0238327Y0091072D02*
X0225252Y0091072D01*
X0224913Y0091185D02*
X0224913Y0091212D01*
X0224913Y0091185D02*
X0219898Y0091185D01*
X0220611Y0091770D02*
X0210868Y0091770D01*
X0210574Y0092469D02*
X0218627Y0092469D01*
X0217698Y0093167D02*
X0210574Y0093167D01*
X0210574Y0093866D02*
X0217239Y0093866D01*
X0216960Y0094564D02*
X0210574Y0094564D01*
X0210574Y0095263D02*
X0216960Y0095263D01*
X0217066Y0095961D02*
X0210574Y0095961D01*
X0210574Y0096660D02*
X0217355Y0096660D01*
X0217444Y0097358D02*
X0211200Y0097358D01*
X0211898Y0098057D02*
X0217133Y0098057D01*
X0216960Y0098755D02*
X0212597Y0098755D01*
X0213295Y0099454D02*
X0216960Y0099454D01*
X0219898Y0099086D02*
X0219898Y0099059D01*
X0219898Y0099086D02*
X0224913Y0099086D01*
X0229216Y0098755D02*
X0238327Y0098755D01*
X0238327Y0098057D02*
X0229216Y0098057D01*
X0229216Y0097358D02*
X0238327Y0097358D01*
X0238327Y0096660D02*
X0229216Y0096660D01*
X0229216Y0095961D02*
X0238327Y0095961D01*
X0238327Y0095263D02*
X0229216Y0095263D01*
X0229216Y0094564D02*
X0238327Y0094564D01*
X0238327Y0093866D02*
X0229216Y0093866D01*
X0229172Y0093167D02*
X0238327Y0093167D01*
X0238327Y0092469D02*
X0229216Y0092469D01*
X0225252Y0090373D02*
X0224574Y0090373D01*
X0224574Y0089675D02*
X0225252Y0089675D01*
X0225252Y0088976D02*
X0224574Y0088976D01*
X0224574Y0091072D02*
X0211448Y0091072D01*
X0211737Y0090373D02*
X0220611Y0090373D01*
X0220611Y0089675D02*
X0211811Y0089675D01*
X0211791Y0088976D02*
X0220909Y0088976D01*
X0219898Y0095122D02*
X0224913Y0095122D01*
X0224913Y0095149D01*
X0229216Y0099454D02*
X0238327Y0099454D01*
X0238327Y0100152D02*
X0229216Y0100152D01*
X0229216Y0100851D02*
X0238327Y0100851D01*
X0238327Y0101550D02*
X0229216Y0101550D01*
X0229216Y0102248D02*
X0238327Y0102248D01*
X0238327Y0102947D02*
X0229216Y0102947D01*
X0229216Y0103645D02*
X0238327Y0103645D01*
X0238327Y0104344D02*
X0229216Y0104344D01*
X0229134Y0105042D02*
X0238327Y0105042D01*
X0238327Y0105741D02*
X0228436Y0105741D01*
X0230021Y0107836D02*
X0218232Y0107836D01*
X0218232Y0108535D02*
X0229471Y0108535D01*
X0229575Y0108282D02*
X0230968Y0106889D01*
X0232787Y0106136D01*
X0234756Y0106136D01*
X0236576Y0106889D01*
X0237968Y0108282D01*
X0238722Y0110101D01*
X0238722Y0112078D01*
X0238547Y0112500D01*
X0241024Y0112500D01*
X0241815Y0113290D01*
X0241815Y0119527D01*
X0241024Y0120318D01*
X0226520Y0120318D01*
X0225729Y0119527D01*
X0225729Y0113290D01*
X0226520Y0112500D01*
X0228996Y0112500D01*
X0228822Y0112078D01*
X0228822Y0110101D01*
X0229575Y0108282D01*
X0229181Y0109233D02*
X0218232Y0109233D01*
X0218232Y0109932D02*
X0228892Y0109932D01*
X0228822Y0110630D02*
X0218232Y0110630D01*
X0218232Y0111329D02*
X0228822Y0111329D01*
X0228822Y0112027D02*
X0218232Y0112027D01*
X0218006Y0112726D02*
X0226293Y0112726D01*
X0225729Y0113424D02*
X0217267Y0113424D01*
X0217267Y0114123D02*
X0225729Y0114123D01*
X0225729Y0114821D02*
X0218342Y0114821D01*
X0219091Y0115520D02*
X0225729Y0115520D01*
X0225729Y0116218D02*
X0219789Y0116218D01*
X0220113Y0116917D02*
X0225729Y0116917D01*
X0225729Y0117615D02*
X0220402Y0117615D01*
X0220617Y0118314D02*
X0225729Y0118314D01*
X0225729Y0119012D02*
X0220617Y0119012D01*
X0220617Y0119711D02*
X0225913Y0119711D01*
X0220506Y0120409D02*
X0252587Y0120409D01*
X0252587Y0119711D02*
X0241631Y0119711D01*
X0241815Y0119012D02*
X0252587Y0119012D01*
X0252587Y0118314D02*
X0241815Y0118314D01*
X0241815Y0117615D02*
X0252587Y0117615D01*
X0252587Y0116917D02*
X0241815Y0116917D01*
X0241815Y0116218D02*
X0252587Y0116218D01*
X0252587Y0115520D02*
X0241815Y0115520D01*
X0241815Y0114821D02*
X0252587Y0114821D01*
X0252587Y0114123D02*
X0241815Y0114123D01*
X0241815Y0113424D02*
X0252587Y0113424D01*
X0252587Y0112726D02*
X0241250Y0112726D01*
X0238722Y0112027D02*
X0252587Y0112027D01*
X0252587Y0111329D02*
X0238722Y0111329D01*
X0238722Y0110630D02*
X0252587Y0110630D01*
X0252587Y0109932D02*
X0238651Y0109932D01*
X0238362Y0109233D02*
X0252587Y0109233D01*
X0252587Y0108535D02*
X0238073Y0108535D01*
X0237522Y0107836D02*
X0246713Y0107836D01*
X0248200Y0107836D02*
X0252587Y0107836D01*
X0252587Y0107138D02*
X0249438Y0107138D01*
X0250025Y0106439D02*
X0252587Y0106439D01*
X0252587Y0105741D02*
X0250315Y0105741D01*
X0250394Y0105042D02*
X0252587Y0105042D01*
X0252587Y0104344D02*
X0250379Y0104344D01*
X0250090Y0103645D02*
X0252587Y0103645D01*
X0252587Y0102947D02*
X0249692Y0102947D01*
X0250131Y0102248D02*
X0252587Y0102248D01*
X0252587Y0101550D02*
X0250394Y0101550D01*
X0250394Y0100851D02*
X0252587Y0100851D01*
X0252587Y0100152D02*
X0250274Y0100152D01*
X0249984Y0099454D02*
X0252587Y0099454D01*
X0252587Y0098755D02*
X0249946Y0098755D01*
X0250236Y0098057D02*
X0252587Y0098057D01*
X0252587Y0097358D02*
X0250394Y0097358D01*
X0250394Y0096660D02*
X0252587Y0096660D01*
X0252587Y0095961D02*
X0250168Y0095961D01*
X0249783Y0095263D02*
X0252587Y0095263D01*
X0252587Y0094564D02*
X0250052Y0094564D01*
X0250341Y0093866D02*
X0252587Y0093866D01*
X0252587Y0093167D02*
X0250394Y0093167D01*
X0250352Y0092469D02*
X0252587Y0092469D01*
X0252587Y0091770D02*
X0250063Y0091770D01*
X0249755Y0091072D02*
X0252587Y0091072D01*
X0252587Y0090373D02*
X0250157Y0090373D01*
X0250394Y0089675D02*
X0252587Y0089675D01*
X0252587Y0088976D02*
X0250394Y0088976D01*
X0250247Y0088278D02*
X0252587Y0088278D01*
X0252587Y0087579D02*
X0249958Y0087579D01*
X0249275Y0086881D02*
X0252587Y0086881D01*
X0252587Y0086182D02*
X0237731Y0086182D01*
X0238159Y0085484D02*
X0252587Y0085484D01*
X0252587Y0084785D02*
X0238448Y0084785D01*
X0238722Y0084087D02*
X0252587Y0084087D01*
X0252587Y0083388D02*
X0238722Y0083388D01*
X0238722Y0082690D02*
X0252587Y0082690D01*
X0252587Y0081991D02*
X0238656Y0081991D01*
X0241466Y0081293D02*
X0252587Y0081293D01*
X0252587Y0080594D02*
X0241815Y0080594D01*
X0241815Y0079896D02*
X0252587Y0079896D01*
X0252587Y0079197D02*
X0241815Y0079197D01*
X0241815Y0078499D02*
X0252587Y0078499D01*
X0252587Y0077800D02*
X0241815Y0077800D01*
X0241815Y0077102D02*
X0252587Y0077102D01*
X0252587Y0076403D02*
X0241815Y0076403D01*
X0241815Y0075705D02*
X0252587Y0075705D01*
X0252587Y0075006D02*
X0241815Y0075006D01*
X0241414Y0074308D02*
X0252587Y0074308D01*
X0252587Y0073609D02*
X0224016Y0073609D01*
X0224016Y0072911D02*
X0252587Y0072911D01*
X0252587Y0072212D02*
X0248512Y0072212D01*
X0248414Y0072311D02*
X0249204Y0071520D01*
X0249204Y0067401D01*
X0248414Y0066611D01*
X0241295Y0066611D01*
X0240504Y0067401D01*
X0240504Y0071520D01*
X0241295Y0072311D01*
X0248414Y0072311D01*
X0249204Y0071514D02*
X0252587Y0071514D01*
X0252587Y0070815D02*
X0249204Y0070815D01*
X0249204Y0070117D02*
X0252587Y0070117D01*
X0252587Y0069418D02*
X0249204Y0069418D01*
X0249204Y0068719D02*
X0252587Y0068719D01*
X0252587Y0068021D02*
X0249204Y0068021D01*
X0249125Y0067322D02*
X0252587Y0067322D01*
X0252587Y0066624D02*
X0248427Y0066624D01*
X0252587Y0065925D02*
X0204254Y0065925D01*
X0204953Y0065227D02*
X0252587Y0065227D01*
X0252587Y0064528D02*
X0205651Y0064528D01*
X0206350Y0063830D02*
X0252587Y0063830D01*
X0252587Y0063131D02*
X0207048Y0063131D01*
X0207747Y0062433D02*
X0252587Y0062433D01*
X0252587Y0061734D02*
X0208445Y0061734D01*
X0209144Y0061036D02*
X0252587Y0061036D01*
X0252587Y0060337D02*
X0209842Y0060337D01*
X0210541Y0059639D02*
X0252587Y0059639D01*
X0252587Y0058940D02*
X0211239Y0058940D01*
X0211938Y0058242D02*
X0252587Y0058242D01*
X0252587Y0057543D02*
X0212636Y0057543D01*
X0213335Y0056845D02*
X0218829Y0056845D01*
X0218774Y0056790D02*
X0218596Y0056482D01*
X0218504Y0056138D01*
X0218504Y0054811D01*
X0222504Y0054811D01*
X0222504Y0057311D01*
X0219677Y0057311D01*
X0219333Y0057219D01*
X0219025Y0057041D01*
X0218774Y0056790D01*
X0218506Y0056146D02*
X0215783Y0056146D01*
X0216482Y0055448D02*
X0218504Y0055448D01*
X0218504Y0054111D02*
X0218504Y0052783D01*
X0218596Y0052440D01*
X0218774Y0052132D01*
X0219025Y0051880D01*
X0219333Y0051703D01*
X0219677Y0051611D01*
X0222504Y0051611D01*
X0222504Y0054111D01*
X0218504Y0054111D01*
X0218504Y0054051D02*
X0216930Y0054051D01*
X0216930Y0053352D02*
X0218504Y0053352D01*
X0218539Y0052654D02*
X0216704Y0052654D01*
X0216318Y0051955D02*
X0218951Y0051955D01*
X0216771Y0054749D02*
X0222504Y0054749D01*
X0222504Y0054811D02*
X0222504Y0054111D01*
X0223204Y0054111D01*
X0223204Y0054811D01*
X0222504Y0054811D01*
X0222504Y0055448D02*
X0223204Y0055448D01*
X0223204Y0054811D02*
X0223204Y0057311D01*
X0226032Y0057311D01*
X0226375Y0057219D01*
X0226683Y0057041D01*
X0226935Y0056790D01*
X0227112Y0056482D01*
X0227204Y0056138D01*
X0227204Y0054811D01*
X0223204Y0054811D01*
X0223204Y0054749D02*
X0240504Y0054749D01*
X0240504Y0054051D02*
X0227204Y0054051D01*
X0227204Y0054111D02*
X0223204Y0054111D01*
X0223204Y0051611D01*
X0226032Y0051611D01*
X0226375Y0051703D01*
X0226683Y0051880D01*
X0226935Y0052132D01*
X0227112Y0052440D01*
X0227204Y0052783D01*
X0227204Y0054111D01*
X0227204Y0053352D02*
X0240504Y0053352D01*
X0240504Y0052654D02*
X0227170Y0052654D01*
X0226758Y0051955D02*
X0240951Y0051955D01*
X0241295Y0051611D02*
X0240504Y0052401D01*
X0240504Y0056520D01*
X0241295Y0057311D01*
X0248414Y0057311D01*
X0249204Y0056520D01*
X0249204Y0052401D01*
X0248414Y0051611D01*
X0241295Y0051611D01*
X0240504Y0055448D02*
X0227204Y0055448D01*
X0227202Y0056146D02*
X0240504Y0056146D01*
X0240829Y0056845D02*
X0226879Y0056845D01*
X0223204Y0056845D02*
X0222504Y0056845D01*
X0222504Y0056146D02*
X0223204Y0056146D01*
X0223204Y0054051D02*
X0222504Y0054051D01*
X0222504Y0053352D02*
X0223204Y0053352D01*
X0223204Y0052654D02*
X0222504Y0052654D01*
X0222504Y0051955D02*
X0223204Y0051955D01*
X0217691Y0047764D02*
X0252587Y0047764D01*
X0252587Y0047066D02*
X0218390Y0047066D01*
X0219088Y0046367D02*
X0252587Y0046367D01*
X0252587Y0045669D02*
X0226873Y0045669D01*
X0227572Y0044970D02*
X0252587Y0044970D01*
X0252587Y0044272D02*
X0228270Y0044272D01*
X0228969Y0043573D02*
X0252587Y0043573D01*
X0252587Y0042875D02*
X0229667Y0042875D01*
X0230366Y0042176D02*
X0252587Y0042176D01*
X0252587Y0041478D02*
X0231064Y0041478D01*
X0231763Y0040779D02*
X0252587Y0040779D01*
X0252587Y0040081D02*
X0232461Y0040081D01*
X0233160Y0039382D02*
X0252587Y0039382D01*
X0252587Y0038684D02*
X0233858Y0038684D01*
X0237169Y0037985D02*
X0242233Y0037985D01*
X0241534Y0037286D02*
X0237867Y0037286D01*
X0238566Y0036588D02*
X0240836Y0036588D01*
X0240137Y0035889D02*
X0239264Y0035889D01*
X0234701Y0035437D02*
X0234701Y0033311D01*
X0234701Y0035437D02*
X0225803Y0044335D01*
X0218717Y0044335D01*
X0187220Y0075831D01*
X0186630Y0076421D01*
X0159661Y0103390D01*
X0159661Y0110083D01*
X0148638Y0121106D01*
X0079346Y0121106D01*
X0067142Y0108902D01*
X0067142Y0094709D01*
X0061980Y0095059D02*
X0061280Y0095059D01*
X0061280Y0100881D01*
X0059484Y0100881D01*
X0059140Y0100789D01*
X0058885Y0100642D01*
X0058646Y0100881D01*
X0057982Y0100881D01*
X0065442Y0108341D01*
X0065442Y0108197D01*
X0065442Y0100881D01*
X0064614Y0100881D01*
X0064375Y0100642D01*
X0064120Y0100789D01*
X0063776Y0100881D01*
X0061980Y0100881D01*
X0061980Y0095059D01*
X0061980Y0095263D02*
X0061280Y0095263D01*
X0061280Y0095961D02*
X0061980Y0095961D01*
X0061980Y0096660D02*
X0061280Y0096660D01*
X0061280Y0097358D02*
X0061980Y0097358D01*
X0061980Y0098057D02*
X0061280Y0098057D01*
X0061280Y0098755D02*
X0061980Y0098755D01*
X0061980Y0099454D02*
X0061280Y0099454D01*
X0061280Y0100152D02*
X0061980Y0100152D01*
X0061980Y0100851D02*
X0061280Y0100851D01*
X0059370Y0100851D02*
X0058676Y0100851D01*
X0058651Y0101550D02*
X0065442Y0101550D01*
X0065442Y0102248D02*
X0059349Y0102248D01*
X0060048Y0102947D02*
X0065442Y0102947D01*
X0065442Y0103645D02*
X0060746Y0103645D01*
X0061445Y0104344D02*
X0065442Y0104344D01*
X0065442Y0105042D02*
X0062143Y0105042D01*
X0062842Y0105741D02*
X0065442Y0105741D01*
X0065442Y0106439D02*
X0063540Y0106439D01*
X0064239Y0107138D02*
X0065442Y0107138D01*
X0065442Y0107836D02*
X0064937Y0107836D01*
X0062224Y0109932D02*
X0044689Y0109932D01*
X0044689Y0110630D02*
X0062923Y0110630D01*
X0063621Y0111329D02*
X0044689Y0111329D01*
X0044689Y0112027D02*
X0064320Y0112027D01*
X0065018Y0112726D02*
X0044689Y0112726D01*
X0044689Y0113424D02*
X0065717Y0113424D01*
X0066415Y0114123D02*
X0044689Y0114123D01*
X0044689Y0114821D02*
X0067114Y0114821D01*
X0067812Y0115520D02*
X0044689Y0115520D01*
X0044689Y0116218D02*
X0068511Y0116218D01*
X0069209Y0116917D02*
X0044689Y0116917D01*
X0044689Y0117615D02*
X0069908Y0117615D01*
X0070606Y0118314D02*
X0044689Y0118314D01*
X0044689Y0119012D02*
X0071305Y0119012D01*
X0072004Y0119711D02*
X0044689Y0119711D01*
X0044689Y0120409D02*
X0072702Y0120409D01*
X0073401Y0121108D02*
X0044689Y0121108D01*
X0044689Y0121806D02*
X0074099Y0121806D01*
X0074798Y0122505D02*
X0044689Y0122505D01*
X0044689Y0123203D02*
X0075496Y0123203D01*
X0076072Y0123779D02*
X0054418Y0102125D01*
X0054418Y0100881D01*
X0053590Y0100881D01*
X0053351Y0100642D01*
X0053096Y0100789D01*
X0052753Y0100881D01*
X0050956Y0100881D01*
X0050956Y0095059D01*
X0050256Y0095059D01*
X0050256Y0100881D01*
X0048460Y0100881D01*
X0048117Y0100789D01*
X0047850Y0100636D01*
X0047584Y0100789D01*
X0047241Y0100881D01*
X0045444Y0100881D01*
X0045444Y0095059D01*
X0044745Y0095059D01*
X0044745Y0100881D01*
X0044689Y0100881D01*
X0044689Y0124662D01*
X0076955Y0124662D01*
X0076072Y0123779D01*
X0076195Y0123902D02*
X0044689Y0123902D01*
X0044689Y0124600D02*
X0076893Y0124600D01*
X0077772Y0123075D02*
X0149819Y0123075D01*
X0161630Y0111264D01*
X0161630Y0106146D01*
X0213992Y0053783D01*
X0215568Y0051257D02*
X0252587Y0051257D01*
X0252587Y0051955D02*
X0248758Y0051955D01*
X0249204Y0052654D02*
X0252587Y0052654D01*
X0252587Y0053352D02*
X0249204Y0053352D01*
X0249204Y0054051D02*
X0252587Y0054051D01*
X0252587Y0054749D02*
X0249204Y0054749D01*
X0249204Y0055448D02*
X0252587Y0055448D01*
X0252587Y0056146D02*
X0249204Y0056146D01*
X0248879Y0056845D02*
X0252587Y0056845D01*
X0252587Y0050558D02*
X0214897Y0050558D01*
X0215596Y0049860D02*
X0252587Y0049860D01*
X0252587Y0049161D02*
X0216294Y0049161D01*
X0216993Y0048463D02*
X0252587Y0048463D01*
X0252587Y0037985D02*
X0247169Y0037985D01*
X0247867Y0037286D02*
X0252587Y0037286D01*
X0252587Y0036588D02*
X0248566Y0036588D01*
X0249264Y0035889D02*
X0252587Y0035889D01*
X0252587Y0035191D02*
X0249751Y0035191D01*
X0249751Y0034492D02*
X0252587Y0034492D01*
X0252587Y0033794D02*
X0249751Y0033794D01*
X0249751Y0033095D02*
X0252587Y0033095D01*
X0252587Y0032397D02*
X0249751Y0032397D01*
X0249751Y0031698D02*
X0252587Y0031698D01*
X0252587Y0031000D02*
X0249531Y0031000D01*
X0248833Y0030301D02*
X0252587Y0030301D01*
X0252587Y0029603D02*
X0248134Y0029603D01*
X0247436Y0028904D02*
X0252587Y0028904D01*
X0252587Y0028206D02*
X0246948Y0028206D01*
X0247646Y0027507D02*
X0252587Y0027507D01*
X0252587Y0026809D02*
X0248345Y0026809D01*
X0249043Y0026110D02*
X0252587Y0026110D01*
X0252587Y0025412D02*
X0249742Y0025412D01*
X0249751Y0024713D02*
X0252587Y0024713D01*
X0252587Y0024015D02*
X0249751Y0024015D01*
X0249751Y0023316D02*
X0252587Y0023316D01*
X0252587Y0022618D02*
X0249751Y0022618D01*
X0249751Y0021919D02*
X0252587Y0021919D01*
X0252587Y0021221D02*
X0249751Y0021221D01*
X0249054Y0020522D02*
X0252587Y0020522D01*
X0252587Y0019824D02*
X0248355Y0019824D01*
X0247657Y0019125D02*
X0252587Y0019125D01*
X0252587Y0018427D02*
X0246958Y0018427D01*
X0252587Y0017728D02*
X0201522Y0017728D01*
X0200824Y0017030D02*
X0252587Y0017030D01*
X0252587Y0016331D02*
X0200125Y0016331D01*
X0199427Y0015633D02*
X0252587Y0015633D01*
X0242443Y0018427D02*
X0236958Y0018427D01*
X0237657Y0019125D02*
X0241745Y0019125D01*
X0241046Y0019824D02*
X0238355Y0019824D01*
X0239054Y0020522D02*
X0240348Y0020522D01*
X0234701Y0023311D02*
X0229819Y0028193D01*
X0222260Y0028193D01*
X0219701Y0030752D01*
X0219701Y0037051D01*
X0216748Y0040004D01*
X0214386Y0040004D01*
X0156118Y0098272D01*
X0155724Y0107720D01*
X0146276Y0117169D01*
X0082496Y0117169D01*
X0078165Y0112839D01*
X0078165Y0094709D01*
X0078165Y0073862D01*
X0075460Y0075006D02*
X0068842Y0075006D01*
X0068842Y0074308D02*
X0075228Y0074308D01*
X0075228Y0074446D02*
X0075228Y0073278D01*
X0075675Y0072198D01*
X0076501Y0071372D01*
X0077581Y0070925D01*
X0078750Y0070925D01*
X0079829Y0071372D01*
X0080656Y0072198D01*
X0081103Y0073278D01*
X0081103Y0074446D01*
X0080656Y0075526D01*
X0079865Y0076316D01*
X0079865Y0088536D01*
X0080693Y0088536D01*
X0080921Y0088764D01*
X0081149Y0088536D01*
X0086205Y0088536D01*
X0086996Y0089327D01*
X0086996Y0089566D01*
X0092363Y0089566D01*
X0092363Y0088867D01*
X0086540Y0088867D01*
X0086540Y0087070D01*
X0086632Y0086727D01*
X0086779Y0086472D01*
X0086540Y0086232D01*
X0086540Y0081177D01*
X0086768Y0080949D01*
X0086540Y0080721D01*
X0086540Y0075665D01*
X0086768Y0075437D01*
X0086540Y0075209D01*
X0086540Y0070153D01*
X0086768Y0069925D01*
X0086540Y0069697D01*
X0086540Y0064642D01*
X0086768Y0064413D01*
X0086540Y0064185D01*
X0086540Y0059130D01*
X0086768Y0058902D01*
X0086540Y0058673D01*
X0086540Y0053618D01*
X0086768Y0053390D01*
X0086540Y0053162D01*
X0086540Y0050991D01*
X0086475Y0051057D01*
X0086167Y0051234D01*
X0085823Y0051326D01*
X0084027Y0051326D01*
X0084027Y0045504D01*
X0083327Y0045504D01*
X0083327Y0051326D01*
X0081531Y0051326D01*
X0081188Y0051234D01*
X0080925Y0051083D01*
X0080693Y0051315D01*
X0075638Y0051315D01*
X0075409Y0051086D01*
X0075181Y0051315D01*
X0070126Y0051315D01*
X0069898Y0051086D01*
X0069669Y0051315D01*
X0068842Y0051315D01*
X0068842Y0079676D01*
X0069632Y0080466D01*
X0070079Y0081546D01*
X0070079Y0082714D01*
X0069721Y0083580D01*
X0070768Y0083580D01*
X0072078Y0082269D01*
X0072078Y0081152D01*
X0072526Y0080072D01*
X0073352Y0079246D01*
X0074431Y0078799D01*
X0075600Y0078799D01*
X0076465Y0079157D01*
X0076465Y0076316D01*
X0075675Y0075526D01*
X0075228Y0074446D01*
X0075228Y0073609D02*
X0068842Y0073609D01*
X0068842Y0072911D02*
X0075380Y0072911D01*
X0075669Y0072212D02*
X0068842Y0072212D01*
X0068842Y0071514D02*
X0076360Y0071514D01*
X0079971Y0071514D02*
X0086540Y0071514D01*
X0086540Y0072212D02*
X0080661Y0072212D01*
X0080951Y0072911D02*
X0086540Y0072911D01*
X0086540Y0073609D02*
X0081103Y0073609D01*
X0081103Y0074308D02*
X0086540Y0074308D01*
X0086540Y0075006D02*
X0080871Y0075006D01*
X0080477Y0075705D02*
X0086540Y0075705D01*
X0086540Y0076403D02*
X0079865Y0076403D01*
X0079865Y0077102D02*
X0086540Y0077102D01*
X0086540Y0077800D02*
X0079865Y0077800D01*
X0079865Y0078499D02*
X0086540Y0078499D01*
X0086540Y0079197D02*
X0079865Y0079197D01*
X0079865Y0079896D02*
X0086540Y0079896D01*
X0086540Y0080594D02*
X0079865Y0080594D01*
X0079865Y0081293D02*
X0086540Y0081293D01*
X0086540Y0081991D02*
X0079865Y0081991D01*
X0079865Y0082690D02*
X0086540Y0082690D01*
X0086540Y0083388D02*
X0079865Y0083388D01*
X0079865Y0084087D02*
X0086540Y0084087D01*
X0086540Y0084785D02*
X0079865Y0084785D01*
X0079865Y0085484D02*
X0086540Y0085484D01*
X0086540Y0086182D02*
X0079865Y0086182D01*
X0079865Y0086881D02*
X0086591Y0086881D01*
X0086540Y0087579D02*
X0079865Y0087579D01*
X0079865Y0088278D02*
X0086540Y0088278D01*
X0086645Y0088976D02*
X0092363Y0088976D01*
X0092713Y0089217D02*
X0088795Y0089217D01*
X0083677Y0084098D01*
X0083677Y0045154D01*
X0084027Y0044970D02*
X0100019Y0044970D01*
X0100717Y0045669D02*
X0086996Y0045669D01*
X0086996Y0045504D02*
X0086996Y0047650D01*
X0087331Y0047315D01*
X0098079Y0047315D01*
X0098275Y0047119D01*
X0102167Y0047119D01*
X0092816Y0037767D01*
X0083594Y0037767D01*
X0082380Y0038981D01*
X0083327Y0038981D01*
X0083327Y0044803D01*
X0084027Y0044803D01*
X0084027Y0038981D01*
X0085823Y0038981D01*
X0086167Y0039073D01*
X0086475Y0039250D01*
X0086726Y0039502D01*
X0086904Y0039810D01*
X0086996Y0040153D01*
X0086996Y0044804D01*
X0084027Y0044804D01*
X0084027Y0045504D01*
X0086996Y0045504D01*
X0086996Y0046367D02*
X0101416Y0046367D01*
X0102114Y0047066D02*
X0086996Y0047066D01*
X0086996Y0044272D02*
X0099320Y0044272D01*
X0098622Y0043573D02*
X0086996Y0043573D01*
X0086996Y0042875D02*
X0097923Y0042875D01*
X0097225Y0042176D02*
X0086996Y0042176D01*
X0086996Y0041478D02*
X0096526Y0041478D01*
X0095828Y0040779D02*
X0086996Y0040779D01*
X0086976Y0040081D02*
X0095129Y0040081D01*
X0094431Y0039382D02*
X0086606Y0039382D01*
X0084027Y0039382D02*
X0083327Y0039382D01*
X0083327Y0040081D02*
X0084027Y0040081D01*
X0084027Y0040779D02*
X0083327Y0040779D01*
X0083327Y0041478D02*
X0084027Y0041478D01*
X0084027Y0042176D02*
X0083327Y0042176D01*
X0083327Y0042875D02*
X0084027Y0042875D01*
X0084027Y0043573D02*
X0083327Y0043573D01*
X0083327Y0044272D02*
X0084027Y0044272D01*
X0084027Y0045669D02*
X0083327Y0045669D01*
X0083327Y0046367D02*
X0084027Y0046367D01*
X0084027Y0047066D02*
X0083327Y0047066D01*
X0083327Y0047764D02*
X0084027Y0047764D01*
X0084027Y0048463D02*
X0083327Y0048463D01*
X0083327Y0049161D02*
X0084027Y0049161D01*
X0084027Y0049860D02*
X0083327Y0049860D01*
X0083327Y0050558D02*
X0084027Y0050558D01*
X0084027Y0051257D02*
X0083327Y0051257D01*
X0081271Y0051257D02*
X0080751Y0051257D01*
X0075580Y0051257D02*
X0075239Y0051257D01*
X0070068Y0051257D02*
X0069727Y0051257D01*
X0068842Y0051955D02*
X0086540Y0051955D01*
X0086540Y0051257D02*
X0086083Y0051257D01*
X0086540Y0052654D02*
X0068842Y0052654D01*
X0068842Y0053352D02*
X0086730Y0053352D01*
X0086540Y0054051D02*
X0068842Y0054051D01*
X0068842Y0054749D02*
X0086540Y0054749D01*
X0086540Y0055448D02*
X0068842Y0055448D01*
X0068842Y0056146D02*
X0086540Y0056146D01*
X0086540Y0056845D02*
X0068842Y0056845D01*
X0068842Y0057543D02*
X0086540Y0057543D01*
X0086540Y0058242D02*
X0068842Y0058242D01*
X0068842Y0058940D02*
X0086729Y0058940D01*
X0086540Y0059639D02*
X0068842Y0059639D01*
X0068842Y0060337D02*
X0086540Y0060337D01*
X0086540Y0061036D02*
X0068842Y0061036D01*
X0068842Y0061734D02*
X0086540Y0061734D01*
X0086540Y0062433D02*
X0068842Y0062433D01*
X0068842Y0063131D02*
X0086540Y0063131D01*
X0086540Y0063830D02*
X0068842Y0063830D01*
X0068842Y0064528D02*
X0086653Y0064528D01*
X0086540Y0065227D02*
X0068842Y0065227D01*
X0068842Y0065925D02*
X0086540Y0065925D01*
X0086540Y0066624D02*
X0068842Y0066624D01*
X0068842Y0067322D02*
X0086540Y0067322D01*
X0086540Y0068021D02*
X0068842Y0068021D01*
X0068842Y0068719D02*
X0086540Y0068719D01*
X0086540Y0069418D02*
X0068842Y0069418D01*
X0068842Y0070117D02*
X0086577Y0070117D01*
X0086540Y0070815D02*
X0068842Y0070815D01*
X0065442Y0070815D02*
X0057818Y0070815D01*
X0057818Y0070117D02*
X0065442Y0070117D01*
X0065442Y0069418D02*
X0057818Y0069418D01*
X0057818Y0068719D02*
X0065442Y0068719D01*
X0065442Y0068021D02*
X0057818Y0068021D01*
X0057818Y0067322D02*
X0065442Y0067322D01*
X0065442Y0066624D02*
X0057818Y0066624D01*
X0057818Y0065925D02*
X0065442Y0065925D01*
X0065442Y0065227D02*
X0057818Y0065227D01*
X0057818Y0064528D02*
X0065442Y0064528D01*
X0065442Y0063830D02*
X0057818Y0063830D01*
X0057818Y0063131D02*
X0065442Y0063131D01*
X0065442Y0062433D02*
X0057818Y0062433D01*
X0057818Y0061734D02*
X0065442Y0061734D01*
X0065442Y0061036D02*
X0057818Y0061036D01*
X0057818Y0060337D02*
X0065442Y0060337D01*
X0065442Y0059639D02*
X0057818Y0059639D01*
X0057818Y0058940D02*
X0065442Y0058940D01*
X0065442Y0058242D02*
X0057818Y0058242D01*
X0057818Y0057543D02*
X0065442Y0057543D01*
X0065442Y0056845D02*
X0057818Y0056845D01*
X0057818Y0056146D02*
X0065442Y0056146D01*
X0065442Y0055448D02*
X0057818Y0055448D01*
X0057818Y0054749D02*
X0065442Y0054749D01*
X0065442Y0054051D02*
X0057818Y0054051D01*
X0057818Y0053352D02*
X0065442Y0053352D01*
X0065442Y0052654D02*
X0057818Y0052654D01*
X0057818Y0051955D02*
X0065442Y0051955D01*
X0065442Y0051315D02*
X0064614Y0051315D01*
X0064386Y0051086D01*
X0064158Y0051315D01*
X0059102Y0051315D01*
X0058874Y0051086D01*
X0058646Y0051315D01*
X0057818Y0051315D01*
X0057818Y0073377D01*
X0058608Y0074167D01*
X0059055Y0075246D01*
X0059055Y0076415D01*
X0058608Y0077495D01*
X0057782Y0078321D01*
X0056702Y0078768D01*
X0055534Y0078768D01*
X0054454Y0078321D01*
X0053628Y0077495D01*
X0053181Y0076415D01*
X0053181Y0075246D01*
X0053628Y0074167D01*
X0054418Y0073377D01*
X0054418Y0051315D01*
X0053590Y0051315D01*
X0053362Y0051086D01*
X0053134Y0051315D01*
X0048079Y0051315D01*
X0047850Y0051086D01*
X0047622Y0051315D01*
X0044689Y0051315D01*
X0044689Y0088536D01*
X0044745Y0088536D01*
X0044745Y0094359D01*
X0045444Y0094359D01*
X0045444Y0088536D01*
X0047241Y0088536D01*
X0047584Y0088628D01*
X0047850Y0088782D01*
X0048117Y0088628D01*
X0048460Y0088536D01*
X0050256Y0088536D01*
X0050256Y0094359D01*
X0048413Y0094359D01*
X0045445Y0094359D01*
X0045445Y0095059D01*
X0050256Y0095059D01*
X0050256Y0094359D01*
X0050956Y0094359D01*
X0050956Y0088536D01*
X0052753Y0088536D01*
X0053096Y0088628D01*
X0053351Y0088775D01*
X0053590Y0088536D01*
X0055182Y0088536D01*
X0060138Y0083580D01*
X0064563Y0083580D01*
X0064204Y0082714D01*
X0064204Y0081546D01*
X0064652Y0080466D01*
X0065442Y0079676D01*
X0065442Y0051315D01*
X0064556Y0051257D02*
X0064215Y0051257D01*
X0059044Y0051257D02*
X0058704Y0051257D01*
X0054418Y0051955D02*
X0044689Y0051955D01*
X0044689Y0052654D02*
X0054418Y0052654D01*
X0054418Y0053352D02*
X0044689Y0053352D01*
X0044689Y0054051D02*
X0054418Y0054051D01*
X0054418Y0054749D02*
X0044689Y0054749D01*
X0044689Y0055448D02*
X0054418Y0055448D01*
X0054418Y0056146D02*
X0044689Y0056146D01*
X0044689Y0056845D02*
X0054418Y0056845D01*
X0054418Y0057543D02*
X0044689Y0057543D01*
X0044689Y0058242D02*
X0054418Y0058242D01*
X0054418Y0058940D02*
X0044689Y0058940D01*
X0044689Y0059639D02*
X0054418Y0059639D01*
X0054418Y0060337D02*
X0044689Y0060337D01*
X0044689Y0061036D02*
X0054418Y0061036D01*
X0054418Y0061734D02*
X0044689Y0061734D01*
X0044689Y0062433D02*
X0054418Y0062433D01*
X0054418Y0063131D02*
X0044689Y0063131D01*
X0044689Y0063830D02*
X0054418Y0063830D01*
X0054418Y0064528D02*
X0044689Y0064528D01*
X0044689Y0065227D02*
X0054418Y0065227D01*
X0054418Y0065925D02*
X0044689Y0065925D01*
X0044689Y0066624D02*
X0054418Y0066624D01*
X0054418Y0067322D02*
X0044689Y0067322D01*
X0044689Y0068021D02*
X0054418Y0068021D01*
X0054418Y0068719D02*
X0044689Y0068719D01*
X0044689Y0069418D02*
X0054418Y0069418D01*
X0054418Y0070117D02*
X0044689Y0070117D01*
X0044689Y0070815D02*
X0054418Y0070815D01*
X0054418Y0071514D02*
X0044689Y0071514D01*
X0044689Y0072212D02*
X0054418Y0072212D01*
X0054418Y0072911D02*
X0044689Y0072911D01*
X0044689Y0073609D02*
X0054186Y0073609D01*
X0053570Y0074308D02*
X0044689Y0074308D01*
X0044689Y0075006D02*
X0053280Y0075006D01*
X0053181Y0075705D02*
X0044689Y0075705D01*
X0044689Y0076403D02*
X0053181Y0076403D01*
X0053465Y0077102D02*
X0044689Y0077102D01*
X0044689Y0077800D02*
X0053933Y0077800D01*
X0054883Y0078499D02*
X0044689Y0078499D01*
X0044689Y0079197D02*
X0065442Y0079197D01*
X0065442Y0078499D02*
X0057353Y0078499D01*
X0058303Y0077800D02*
X0065442Y0077800D01*
X0065442Y0077102D02*
X0058771Y0077102D01*
X0059055Y0076403D02*
X0065442Y0076403D01*
X0065442Y0075705D02*
X0059055Y0075705D01*
X0058956Y0075006D02*
X0065442Y0075006D01*
X0065442Y0074308D02*
X0058667Y0074308D01*
X0058051Y0073609D02*
X0065442Y0073609D01*
X0065442Y0072911D02*
X0057818Y0072911D01*
X0057818Y0072212D02*
X0065442Y0072212D01*
X0065442Y0071514D02*
X0057818Y0071514D01*
X0056118Y0075831D02*
X0056118Y0045142D01*
X0056118Y0032917D01*
X0072260Y0016776D01*
X0198165Y0016776D01*
X0204701Y0023311D01*
X0208355Y0019824D02*
X0211046Y0019824D01*
X0210348Y0020522D02*
X0209054Y0020522D01*
X0207657Y0019125D02*
X0211745Y0019125D01*
X0212443Y0018427D02*
X0206958Y0018427D01*
X0202443Y0018427D02*
X0202221Y0018427D01*
X0194701Y0023311D02*
X0199819Y0028429D01*
X0199819Y0036067D01*
X0156118Y0079768D01*
X0150606Y0079768D01*
X0145652Y0079768D01*
X0145652Y0079763D01*
X0145652Y0075831D02*
X0145652Y0075826D01*
X0145652Y0075831D02*
X0150606Y0075831D01*
X0150606Y0071894D02*
X0145652Y0071894D01*
X0145652Y0071889D01*
X0145652Y0067957D02*
X0145652Y0067952D01*
X0145652Y0067957D02*
X0150606Y0067957D01*
X0150606Y0067944D02*
X0160068Y0067944D01*
X0194701Y0033311D01*
X0191267Y0029603D02*
X0141744Y0029603D01*
X0141744Y0029361D02*
X0141572Y0028948D01*
X0144046Y0028948D01*
X0144837Y0028157D01*
X0144837Y0021920D01*
X0144046Y0021130D01*
X0129542Y0021130D01*
X0128751Y0021920D01*
X0128751Y0028157D01*
X0129542Y0028948D01*
X0132015Y0028948D01*
X0131844Y0029361D01*
X0131844Y0031338D01*
X0132597Y0033157D01*
X0133990Y0034550D01*
X0135809Y0035304D01*
X0137778Y0035304D01*
X0139598Y0034550D01*
X0140990Y0033157D01*
X0141744Y0031338D01*
X0141744Y0029361D01*
X0141744Y0030301D02*
X0190569Y0030301D01*
X0189870Y0031000D02*
X0141744Y0031000D01*
X0141594Y0031698D02*
X0189651Y0031698D01*
X0189651Y0031219D02*
X0192559Y0028311D01*
X0189651Y0025403D01*
X0189651Y0021219D01*
X0189928Y0020942D01*
X0189036Y0020050D01*
X0074933Y0020050D01*
X0063330Y0031653D01*
X0063330Y0038969D01*
X0064158Y0038969D01*
X0064386Y0039197D01*
X0064614Y0038969D01*
X0069669Y0038969D01*
X0069898Y0039197D01*
X0070126Y0038969D01*
X0075181Y0038969D01*
X0075409Y0039197D01*
X0075638Y0038969D01*
X0077584Y0038969D01*
X0082186Y0034367D01*
X0094224Y0034367D01*
X0095220Y0035363D01*
X0106975Y0047119D01*
X0109536Y0047119D01*
X0109536Y0046220D01*
X0098327Y0035011D01*
X0097780Y0034464D01*
X0096898Y0034464D01*
X0096107Y0033673D01*
X0096107Y0029405D01*
X0096898Y0028615D01*
X0101165Y0028615D01*
X0101394Y0028843D01*
X0101622Y0028615D01*
X0105890Y0028615D01*
X0106118Y0028843D01*
X0106346Y0028615D01*
X0110614Y0028615D01*
X0110843Y0028843D01*
X0111071Y0028615D01*
X0115339Y0028615D01*
X0116130Y0029405D01*
X0116130Y0032060D01*
X0118448Y0034379D01*
X0118448Y0076141D01*
X0110815Y0083775D01*
X0110815Y0086429D01*
X0110024Y0087220D01*
X0104968Y0087220D01*
X0104178Y0086429D01*
X0104178Y0080980D01*
X0104209Y0080949D01*
X0104178Y0080917D01*
X0104178Y0075468D01*
X0104209Y0075437D01*
X0104178Y0075406D01*
X0104178Y0069957D01*
X0104209Y0069925D01*
X0104178Y0069894D01*
X0104178Y0064445D01*
X0104968Y0063654D01*
X0108607Y0063654D01*
X0109536Y0062725D01*
X0109536Y0059661D01*
X0104968Y0059661D01*
X0104178Y0058870D01*
X0104178Y0053421D01*
X0104209Y0053390D01*
X0104178Y0053358D01*
X0104178Y0049129D01*
X0104122Y0049073D01*
X0104122Y0053358D01*
X0104090Y0053390D01*
X0104122Y0053421D01*
X0104122Y0058870D01*
X0103331Y0059661D01*
X0098885Y0059661D01*
X0098885Y0063654D01*
X0103331Y0063654D01*
X0104122Y0064445D01*
X0104122Y0069894D01*
X0104090Y0069925D01*
X0104122Y0069957D01*
X0104122Y0075406D01*
X0104090Y0075437D01*
X0104122Y0075468D01*
X0104122Y0080917D01*
X0104090Y0080949D01*
X0104122Y0080980D01*
X0104122Y0086429D01*
X0103331Y0087220D01*
X0098885Y0087220D01*
X0098885Y0088867D01*
X0093063Y0088867D01*
X0093063Y0089566D01*
X0098885Y0089566D01*
X0098885Y0091363D01*
X0098793Y0091706D01*
X0098616Y0092014D01*
X0098364Y0092265D01*
X0098057Y0092443D01*
X0097713Y0092535D01*
X0093063Y0092535D01*
X0093063Y0089567D01*
X0092363Y0089567D01*
X0092363Y0092535D01*
X0087712Y0092535D01*
X0087369Y0092443D01*
X0087061Y0092265D01*
X0086996Y0092200D01*
X0086996Y0093009D01*
X0104253Y0093009D01*
X0120155Y0077106D01*
X0120557Y0076135D01*
X0120862Y0075831D01*
X0120557Y0075526D01*
X0120110Y0074446D01*
X0120110Y0073278D01*
X0120557Y0072198D01*
X0120862Y0071894D01*
X0120557Y0071589D01*
X0120110Y0070509D01*
X0120110Y0069341D01*
X0120557Y0068261D01*
X0120862Y0067957D01*
X0120557Y0067652D01*
X0120110Y0066572D01*
X0120110Y0065404D01*
X0120557Y0064324D01*
X0120862Y0064020D01*
X0120557Y0063715D01*
X0120110Y0062635D01*
X0120110Y0061467D01*
X0120557Y0060387D01*
X0120862Y0060083D01*
X0120557Y0059778D01*
X0120110Y0058698D01*
X0120110Y0057530D01*
X0120557Y0056450D01*
X0120862Y0056146D01*
X0120557Y0055841D01*
X0120110Y0054761D01*
X0120110Y0053593D01*
X0120557Y0052513D01*
X0120862Y0052209D01*
X0120557Y0051904D01*
X0120110Y0050824D01*
X0120110Y0049656D01*
X0120557Y0048576D01*
X0120862Y0048272D01*
X0120557Y0047967D01*
X0120110Y0046887D01*
X0120110Y0045719D01*
X0120557Y0044639D01*
X0120862Y0044335D01*
X0120557Y0044030D01*
X0120110Y0042950D01*
X0120110Y0041782D01*
X0120557Y0040702D01*
X0120862Y0040398D01*
X0120557Y0040093D01*
X0120110Y0039013D01*
X0120110Y0037845D01*
X0120557Y0036765D01*
X0121383Y0035939D01*
X0122463Y0035492D01*
X0123632Y0035492D01*
X0124336Y0035784D01*
X0124423Y0035696D01*
X0131447Y0035696D01*
X0132238Y0036487D01*
X0132238Y0040362D01*
X0132207Y0040393D01*
X0132238Y0040424D01*
X0132238Y0044299D01*
X0132207Y0044330D01*
X0132238Y0044361D01*
X0132238Y0048236D01*
X0132207Y0048267D01*
X0132238Y0048298D01*
X0132238Y0052173D01*
X0132207Y0052204D01*
X0132238Y0052235D01*
X0132238Y0056110D01*
X0132207Y0056141D01*
X0132238Y0056172D01*
X0132238Y0060047D01*
X0132207Y0060078D01*
X0132238Y0060109D01*
X0132238Y0063984D01*
X0132207Y0064015D01*
X0132238Y0064046D01*
X0132238Y0067921D01*
X0132207Y0067952D01*
X0132238Y0067983D01*
X0132238Y0071858D01*
X0132207Y0071889D01*
X0132238Y0071920D01*
X0132238Y0075795D01*
X0132207Y0075826D01*
X0132238Y0075857D01*
X0132238Y0079732D01*
X0132207Y0079763D01*
X0132238Y0079794D01*
X0132238Y0083669D01*
X0132207Y0083700D01*
X0132238Y0083731D01*
X0132238Y0087606D01*
X0132207Y0087637D01*
X0132238Y0087668D01*
X0132238Y0091543D01*
X0132207Y0091574D01*
X0132238Y0091605D01*
X0132238Y0095480D01*
X0131447Y0096270D01*
X0124423Y0096270D01*
X0124343Y0096190D01*
X0123632Y0096485D01*
X0122463Y0096485D01*
X0121383Y0096037D01*
X0120557Y0095211D01*
X0120110Y0094132D01*
X0120110Y0092963D01*
X0120557Y0091883D01*
X0120862Y0091579D01*
X0120557Y0091274D01*
X0120110Y0090195D01*
X0120110Y0089026D01*
X0120557Y0087946D01*
X0120862Y0087642D01*
X0120557Y0087337D01*
X0120110Y0086258D01*
X0120110Y0085089D01*
X0120557Y0084009D01*
X0120862Y0083705D01*
X0120557Y0083400D01*
X0120110Y0082321D01*
X0120110Y0081960D01*
X0107361Y0094709D01*
X0112472Y0099820D01*
X0112236Y0099250D01*
X0112236Y0098081D01*
X0112683Y0097001D01*
X0113509Y0096175D01*
X0114589Y0095728D01*
X0115758Y0095728D01*
X0116837Y0096175D01*
X0117627Y0096965D01*
X0131004Y0096965D01*
X0134159Y0093811D01*
X0141349Y0093811D01*
X0141349Y0093574D01*
X0141381Y0093543D01*
X0141349Y0093511D01*
X0141349Y0089637D01*
X0141381Y0089605D01*
X0141349Y0089574D01*
X0141349Y0085700D01*
X0141381Y0085668D01*
X0141349Y0085637D01*
X0141349Y0081763D01*
X0141381Y0081731D01*
X0141349Y0081700D01*
X0141349Y0077826D01*
X0141381Y0077794D01*
X0141349Y0077763D01*
X0141349Y0073889D01*
X0141381Y0073857D01*
X0141349Y0073826D01*
X0141349Y0069952D01*
X0141381Y0069920D01*
X0141349Y0069889D01*
X0141349Y0066015D01*
X0141381Y0065983D01*
X0141349Y0065952D01*
X0141349Y0062078D01*
X0141381Y0062046D01*
X0141349Y0062015D01*
X0141349Y0058141D01*
X0141381Y0058109D01*
X0141349Y0058078D01*
X0141349Y0054204D01*
X0141381Y0054172D01*
X0141349Y0054141D01*
X0141349Y0050267D01*
X0141381Y0050235D01*
X0141349Y0050204D01*
X0141349Y0046330D01*
X0141381Y0046298D01*
X0141349Y0046267D01*
X0141349Y0042393D01*
X0141381Y0042361D01*
X0141349Y0042330D01*
X0141349Y0038456D01*
X0141444Y0038361D01*
X0141441Y0038355D01*
X0141349Y0038012D01*
X0141349Y0036795D01*
X0145313Y0036795D01*
X0145313Y0036117D01*
X0141349Y0036117D01*
X0141349Y0034900D01*
X0141441Y0034557D01*
X0141619Y0034249D01*
X0141870Y0033998D01*
X0142178Y0033820D01*
X0142521Y0033728D01*
X0145313Y0033728D01*
X0145313Y0036117D01*
X0145991Y0036117D01*
X0145991Y0036795D01*
X0149955Y0036795D01*
X0149955Y0037488D01*
X0150022Y0037460D01*
X0151191Y0037460D01*
X0152270Y0037907D01*
X0153096Y0038734D01*
X0153544Y0039813D01*
X0153544Y0040982D01*
X0153096Y0042062D01*
X0152792Y0042366D01*
X0153096Y0042671D01*
X0153544Y0043750D01*
X0153544Y0044919D01*
X0153096Y0045999D01*
X0152792Y0046303D01*
X0153096Y0046608D01*
X0153544Y0047687D01*
X0153544Y0048856D01*
X0153096Y0049936D01*
X0152792Y0050240D01*
X0153096Y0050545D01*
X0153544Y0051624D01*
X0153544Y0052793D01*
X0153096Y0053873D01*
X0152792Y0054177D01*
X0153096Y0054482D01*
X0153544Y0055561D01*
X0153544Y0056730D01*
X0153096Y0057810D01*
X0152792Y0058114D01*
X0153096Y0058419D01*
X0153544Y0059498D01*
X0153544Y0060667D01*
X0153096Y0061747D01*
X0152792Y0062051D01*
X0153096Y0062356D01*
X0153544Y0063435D01*
X0153544Y0064604D01*
X0153096Y0065684D01*
X0152798Y0065982D01*
X0153060Y0066244D01*
X0159364Y0066244D01*
X0189928Y0035680D01*
X0189651Y0035403D01*
X0189651Y0031219D01*
X0189651Y0032397D02*
X0141305Y0032397D01*
X0141016Y0033095D02*
X0189651Y0033095D01*
X0189651Y0033794D02*
X0149029Y0033794D01*
X0149126Y0033820D02*
X0149434Y0033998D01*
X0149685Y0034249D01*
X0149863Y0034557D01*
X0149955Y0034900D01*
X0149955Y0036117D01*
X0145991Y0036117D01*
X0145991Y0033728D01*
X0148782Y0033728D01*
X0149126Y0033820D01*
X0149826Y0034492D02*
X0189651Y0034492D01*
X0189651Y0035191D02*
X0149955Y0035191D01*
X0149955Y0035889D02*
X0189718Y0035889D01*
X0189020Y0036588D02*
X0145991Y0036588D01*
X0145652Y0036461D02*
X0145652Y0036456D01*
X0145647Y0036461D01*
X0134071Y0036461D01*
X0123244Y0025634D01*
X0113205Y0025634D01*
X0108480Y0025634D01*
X0103756Y0025634D01*
X0099031Y0025634D01*
X0098681Y0025412D02*
X0069571Y0025412D01*
X0068873Y0026110D02*
X0096107Y0026110D01*
X0096107Y0025984D02*
X0098681Y0025984D01*
X0098681Y0025284D01*
X0096107Y0025284D01*
X0096107Y0023881D01*
X0096199Y0023538D01*
X0096376Y0023230D01*
X0096628Y0022979D01*
X0096936Y0022801D01*
X0097279Y0022709D01*
X0098682Y0022709D01*
X0098682Y0025284D01*
X0099381Y0025284D01*
X0099381Y0022709D01*
X0100784Y0022709D01*
X0101127Y0022801D01*
X0101394Y0022955D01*
X0101660Y0022801D01*
X0102003Y0022709D01*
X0103406Y0022709D01*
X0103406Y0025284D01*
X0100831Y0025284D01*
X0099382Y0025284D01*
X0099382Y0025984D01*
X0103406Y0025984D01*
X0103406Y0028559D01*
X0102003Y0028559D01*
X0101660Y0028467D01*
X0101394Y0028313D01*
X0101127Y0028467D01*
X0100784Y0028559D01*
X0099381Y0028559D01*
X0099381Y0025984D01*
X0098682Y0025984D01*
X0098682Y0028559D01*
X0097279Y0028559D01*
X0096936Y0028467D01*
X0096628Y0028289D01*
X0096376Y0028038D01*
X0096199Y0027730D01*
X0096107Y0027386D01*
X0096107Y0025984D01*
X0096107Y0026809D02*
X0068174Y0026809D01*
X0067476Y0027507D02*
X0096139Y0027507D01*
X0096545Y0028206D02*
X0066777Y0028206D01*
X0066079Y0028904D02*
X0096608Y0028904D01*
X0096107Y0029603D02*
X0065380Y0029603D01*
X0064682Y0030301D02*
X0096107Y0030301D01*
X0096107Y0031000D02*
X0063983Y0031000D01*
X0063330Y0031698D02*
X0096107Y0031698D01*
X0096107Y0032397D02*
X0063330Y0032397D01*
X0063330Y0033095D02*
X0096107Y0033095D01*
X0096227Y0033794D02*
X0063330Y0033794D01*
X0063330Y0034492D02*
X0082060Y0034492D01*
X0081362Y0035191D02*
X0063330Y0035191D01*
X0063330Y0035889D02*
X0080663Y0035889D01*
X0079965Y0036588D02*
X0063330Y0036588D01*
X0063330Y0037286D02*
X0079266Y0037286D01*
X0078568Y0037985D02*
X0063330Y0037985D01*
X0063330Y0038684D02*
X0077869Y0038684D01*
X0078165Y0040791D02*
X0078165Y0045142D01*
X0072654Y0045142D01*
X0067142Y0045142D01*
X0067142Y0082130D01*
X0070079Y0081991D02*
X0072078Y0081991D01*
X0072078Y0081293D02*
X0069974Y0081293D01*
X0069685Y0080594D02*
X0072309Y0080594D01*
X0072702Y0079896D02*
X0069062Y0079896D01*
X0068842Y0079197D02*
X0073470Y0079197D01*
X0075016Y0081736D02*
X0071472Y0085280D01*
X0060843Y0085280D01*
X0056118Y0090004D01*
X0056118Y0094709D01*
X0056118Y0101421D01*
X0077772Y0123075D01*
X0080921Y0119138D02*
X0147457Y0119138D01*
X0157693Y0108902D01*
X0157693Y0101028D01*
X0187220Y0071500D01*
X0187417Y0071303D01*
X0216354Y0042366D01*
X0224228Y0042366D01*
X0229740Y0036854D01*
X0229740Y0030949D01*
X0232398Y0028291D01*
X0239681Y0028291D01*
X0244701Y0033311D01*
X0231046Y0019824D02*
X0228355Y0019824D01*
X0229054Y0020522D02*
X0230348Y0020522D01*
X0231745Y0019125D02*
X0227657Y0019125D01*
X0226958Y0018427D02*
X0232443Y0018427D01*
X0225051Y0018427D02*
X0224351Y0018427D01*
X0224351Y0019125D02*
X0225051Y0019125D01*
X0225051Y0019824D02*
X0224351Y0019824D01*
X0224351Y0020522D02*
X0225051Y0020522D01*
X0225051Y0021221D02*
X0224351Y0021221D01*
X0224351Y0021919D02*
X0225051Y0021919D01*
X0225051Y0022618D02*
X0224351Y0022618D01*
X0221745Y0019125D02*
X0217657Y0019125D01*
X0218355Y0019824D02*
X0221046Y0019824D01*
X0220348Y0020522D02*
X0219054Y0020522D01*
X0216958Y0018427D02*
X0222443Y0018427D01*
X0214701Y0023311D02*
X0209661Y0028350D01*
X0209661Y0036461D01*
X0153756Y0092366D01*
X0153756Y0106539D01*
X0145094Y0115201D01*
X0125449Y0115201D01*
X0104957Y0094709D01*
X0083677Y0094709D01*
X0086996Y0096409D02*
X0086996Y0100091D01*
X0086205Y0100881D01*
X0081149Y0100881D01*
X0080921Y0100653D01*
X0080693Y0100881D01*
X0079865Y0100881D01*
X0079865Y0112134D01*
X0083200Y0115469D01*
X0123313Y0115469D01*
X0104253Y0096409D01*
X0086996Y0096409D01*
X0086996Y0096660D02*
X0104504Y0096660D01*
X0105202Y0097358D02*
X0086996Y0097358D01*
X0086996Y0098057D02*
X0105901Y0098057D01*
X0106599Y0098755D02*
X0086996Y0098755D01*
X0086996Y0099454D02*
X0107298Y0099454D01*
X0107996Y0100152D02*
X0086934Y0100152D01*
X0086235Y0100851D02*
X0108695Y0100851D01*
X0109393Y0101550D02*
X0079865Y0101550D01*
X0079865Y0102248D02*
X0110092Y0102248D01*
X0110790Y0102947D02*
X0079865Y0102947D01*
X0079865Y0103645D02*
X0111489Y0103645D01*
X0112187Y0104344D02*
X0079865Y0104344D01*
X0079865Y0105042D02*
X0112886Y0105042D01*
X0113584Y0105741D02*
X0079865Y0105741D01*
X0079865Y0106439D02*
X0114283Y0106439D01*
X0114981Y0107138D02*
X0079865Y0107138D01*
X0079865Y0107836D02*
X0115680Y0107836D01*
X0116379Y0108535D02*
X0079865Y0108535D01*
X0079865Y0109233D02*
X0117077Y0109233D01*
X0117776Y0109932D02*
X0079865Y0109932D01*
X0079865Y0110630D02*
X0118474Y0110630D01*
X0119173Y0111329D02*
X0079865Y0111329D01*
X0079865Y0112027D02*
X0119871Y0112027D01*
X0120570Y0112726D02*
X0080457Y0112726D01*
X0081155Y0113424D02*
X0121268Y0113424D01*
X0121967Y0114123D02*
X0081854Y0114123D01*
X0082552Y0114821D02*
X0122665Y0114821D01*
X0125378Y0112726D02*
X0145165Y0112726D01*
X0144467Y0113424D02*
X0126076Y0113424D01*
X0126153Y0113501D02*
X0144390Y0113501D01*
X0152056Y0105835D01*
X0152056Y0098095D01*
X0151191Y0098453D01*
X0150022Y0098453D01*
X0149264Y0098139D01*
X0149164Y0098239D01*
X0142140Y0098239D01*
X0141349Y0097448D01*
X0141349Y0097211D01*
X0139119Y0097211D01*
X0139598Y0097409D01*
X0140990Y0098802D01*
X0141744Y0100621D01*
X0141744Y0102598D01*
X0141569Y0103019D01*
X0144046Y0103019D01*
X0144837Y0103810D01*
X0144837Y0110047D01*
X0144046Y0110837D01*
X0129542Y0110837D01*
X0128751Y0110047D01*
X0128751Y0103810D01*
X0129542Y0103019D01*
X0132018Y0103019D01*
X0131844Y0102598D01*
X0131844Y0100621D01*
X0131950Y0100365D01*
X0117627Y0100365D01*
X0116837Y0101156D01*
X0115758Y0101603D01*
X0114589Y0101603D01*
X0114019Y0101367D01*
X0126153Y0113501D01*
X0124679Y0112027D02*
X0145864Y0112027D01*
X0146562Y0111329D02*
X0123981Y0111329D01*
X0123282Y0110630D02*
X0129334Y0110630D01*
X0128751Y0109932D02*
X0122584Y0109932D01*
X0121885Y0109233D02*
X0128751Y0109233D01*
X0128751Y0108535D02*
X0121187Y0108535D01*
X0120488Y0107836D02*
X0128751Y0107836D01*
X0128751Y0107138D02*
X0119790Y0107138D01*
X0119091Y0106439D02*
X0128751Y0106439D01*
X0128751Y0105741D02*
X0118393Y0105741D01*
X0117694Y0105042D02*
X0128751Y0105042D01*
X0128751Y0104344D02*
X0116996Y0104344D01*
X0116297Y0103645D02*
X0128916Y0103645D01*
X0131988Y0102947D02*
X0115599Y0102947D01*
X0114900Y0102248D02*
X0131844Y0102248D01*
X0131844Y0101550D02*
X0115886Y0101550D01*
X0114460Y0101550D02*
X0114202Y0101550D01*
X0112320Y0099454D02*
X0112106Y0099454D01*
X0112236Y0098755D02*
X0111408Y0098755D01*
X0110709Y0098057D02*
X0112246Y0098057D01*
X0112535Y0097358D02*
X0110011Y0097358D01*
X0109312Y0096660D02*
X0113025Y0096660D01*
X0114025Y0095961D02*
X0108614Y0095961D01*
X0107915Y0095263D02*
X0120609Y0095263D01*
X0120289Y0094564D02*
X0107505Y0094564D01*
X0108204Y0093866D02*
X0120110Y0093866D01*
X0120110Y0093167D02*
X0108902Y0093167D01*
X0109601Y0092469D02*
X0120314Y0092469D01*
X0120670Y0091770D02*
X0110299Y0091770D01*
X0110998Y0091072D02*
X0120473Y0091072D01*
X0120184Y0090373D02*
X0111696Y0090373D01*
X0112395Y0089675D02*
X0120110Y0089675D01*
X0120130Y0088976D02*
X0113093Y0088976D01*
X0113792Y0088278D02*
X0120420Y0088278D01*
X0120799Y0087579D02*
X0114490Y0087579D01*
X0115189Y0086881D02*
X0120368Y0086881D01*
X0120110Y0086182D02*
X0115887Y0086182D01*
X0116586Y0085484D02*
X0120110Y0085484D01*
X0120236Y0084785D02*
X0117284Y0084785D01*
X0117983Y0084087D02*
X0120525Y0084087D01*
X0120552Y0083388D02*
X0118681Y0083388D01*
X0119380Y0082690D02*
X0120263Y0082690D01*
X0120110Y0081991D02*
X0120078Y0081991D01*
X0123047Y0081736D02*
X0123052Y0081731D01*
X0127935Y0081731D01*
X0127935Y0081736D01*
X0132238Y0081991D02*
X0141349Y0081991D01*
X0141349Y0081293D02*
X0132238Y0081293D01*
X0132238Y0080594D02*
X0141349Y0080594D01*
X0141349Y0079896D02*
X0132238Y0079896D01*
X0132238Y0079197D02*
X0141349Y0079197D01*
X0141349Y0078499D02*
X0132238Y0078499D01*
X0132238Y0077800D02*
X0141375Y0077800D01*
X0141349Y0077102D02*
X0132238Y0077102D01*
X0132238Y0076403D02*
X0141349Y0076403D01*
X0141349Y0075705D02*
X0132238Y0075705D01*
X0132238Y0075006D02*
X0141349Y0075006D01*
X0141349Y0074308D02*
X0132238Y0074308D01*
X0132238Y0073609D02*
X0141349Y0073609D01*
X0141349Y0072911D02*
X0132238Y0072911D01*
X0132238Y0072212D02*
X0141349Y0072212D01*
X0141349Y0071514D02*
X0132238Y0071514D01*
X0132238Y0070815D02*
X0141349Y0070815D01*
X0141349Y0070117D02*
X0132238Y0070117D01*
X0132238Y0069418D02*
X0141349Y0069418D01*
X0141349Y0068719D02*
X0132238Y0068719D01*
X0132238Y0068021D02*
X0141349Y0068021D01*
X0141349Y0067322D02*
X0132238Y0067322D01*
X0132238Y0066624D02*
X0141349Y0066624D01*
X0141349Y0065925D02*
X0132238Y0065925D01*
X0132238Y0065227D02*
X0141349Y0065227D01*
X0141349Y0064528D02*
X0132238Y0064528D01*
X0132238Y0063830D02*
X0141349Y0063830D01*
X0141349Y0063131D02*
X0132238Y0063131D01*
X0132238Y0062433D02*
X0141349Y0062433D01*
X0141349Y0061734D02*
X0132238Y0061734D01*
X0132238Y0061036D02*
X0141349Y0061036D01*
X0141349Y0060337D02*
X0132238Y0060337D01*
X0132238Y0059639D02*
X0141349Y0059639D01*
X0141349Y0058940D02*
X0132238Y0058940D01*
X0132238Y0058242D02*
X0141349Y0058242D01*
X0141349Y0057543D02*
X0132238Y0057543D01*
X0132238Y0056845D02*
X0141349Y0056845D01*
X0141349Y0056146D02*
X0132212Y0056146D01*
X0132238Y0055448D02*
X0141349Y0055448D01*
X0141349Y0054749D02*
X0132238Y0054749D01*
X0132238Y0054051D02*
X0141349Y0054051D01*
X0141349Y0053352D02*
X0132238Y0053352D01*
X0132238Y0052654D02*
X0141349Y0052654D01*
X0141349Y0051955D02*
X0132238Y0051955D01*
X0132238Y0051257D02*
X0141349Y0051257D01*
X0141349Y0050558D02*
X0132238Y0050558D01*
X0132238Y0049860D02*
X0141349Y0049860D01*
X0141349Y0049161D02*
X0132238Y0049161D01*
X0132238Y0048463D02*
X0141349Y0048463D01*
X0141349Y0047764D02*
X0132238Y0047764D01*
X0132238Y0047066D02*
X0141349Y0047066D01*
X0141349Y0046367D02*
X0132238Y0046367D01*
X0132238Y0045669D02*
X0141349Y0045669D01*
X0141349Y0044970D02*
X0132238Y0044970D01*
X0132238Y0044272D02*
X0141349Y0044272D01*
X0141349Y0043573D02*
X0132238Y0043573D01*
X0132238Y0042875D02*
X0141349Y0042875D01*
X0141349Y0042176D02*
X0132238Y0042176D01*
X0132238Y0041478D02*
X0141349Y0041478D01*
X0141349Y0040779D02*
X0132238Y0040779D01*
X0132238Y0040081D02*
X0141349Y0040081D01*
X0141349Y0039382D02*
X0132238Y0039382D01*
X0132238Y0038684D02*
X0141349Y0038684D01*
X0141349Y0037985D02*
X0132238Y0037985D01*
X0132238Y0037286D02*
X0141349Y0037286D01*
X0141349Y0035889D02*
X0131640Y0035889D01*
X0132238Y0036588D02*
X0145313Y0036588D01*
X0145652Y0036461D02*
X0150606Y0036461D01*
X0149955Y0037286D02*
X0188321Y0037286D01*
X0187623Y0037985D02*
X0152348Y0037985D01*
X0153046Y0038684D02*
X0186924Y0038684D01*
X0186226Y0039382D02*
X0153365Y0039382D01*
X0153544Y0040081D02*
X0185527Y0040081D01*
X0184829Y0040779D02*
X0153544Y0040779D01*
X0153338Y0041478D02*
X0184130Y0041478D01*
X0183432Y0042176D02*
X0152982Y0042176D01*
X0153181Y0042875D02*
X0182733Y0042875D01*
X0182035Y0043573D02*
X0153470Y0043573D01*
X0153544Y0044272D02*
X0181336Y0044272D01*
X0180638Y0044970D02*
X0153523Y0044970D01*
X0153233Y0045669D02*
X0179939Y0045669D01*
X0179241Y0046367D02*
X0152856Y0046367D01*
X0153286Y0047066D02*
X0178542Y0047066D01*
X0177843Y0047764D02*
X0153544Y0047764D01*
X0153544Y0048463D02*
X0177145Y0048463D01*
X0176446Y0049161D02*
X0153417Y0049161D01*
X0153128Y0049860D02*
X0175748Y0049860D01*
X0175049Y0050558D02*
X0153102Y0050558D01*
X0153391Y0051257D02*
X0174351Y0051257D01*
X0173652Y0051955D02*
X0153544Y0051955D01*
X0153544Y0052654D02*
X0172954Y0052654D01*
X0172255Y0053352D02*
X0153312Y0053352D01*
X0152918Y0054051D02*
X0171557Y0054051D01*
X0170858Y0054749D02*
X0153207Y0054749D01*
X0153497Y0055448D02*
X0170160Y0055448D01*
X0169461Y0056146D02*
X0153544Y0056146D01*
X0153496Y0056845D02*
X0168763Y0056845D01*
X0168064Y0057543D02*
X0153207Y0057543D01*
X0152920Y0058242D02*
X0167366Y0058242D01*
X0166667Y0058940D02*
X0153313Y0058940D01*
X0153544Y0059639D02*
X0165969Y0059639D01*
X0165270Y0060337D02*
X0153544Y0060337D01*
X0153391Y0061036D02*
X0164572Y0061036D01*
X0163873Y0061734D02*
X0153102Y0061734D01*
X0153128Y0062433D02*
X0163175Y0062433D01*
X0162476Y0063131D02*
X0153418Y0063131D01*
X0153544Y0063830D02*
X0161778Y0063830D01*
X0161079Y0064528D02*
X0153544Y0064528D01*
X0153286Y0065227D02*
X0160381Y0065227D01*
X0159682Y0065925D02*
X0152855Y0065925D01*
X0150606Y0064020D02*
X0150606Y0064015D01*
X0145652Y0064015D01*
X0145652Y0060083D02*
X0145652Y0060078D01*
X0145652Y0060083D02*
X0150606Y0060083D01*
X0150606Y0056146D02*
X0150606Y0056141D01*
X0145652Y0056141D01*
X0145652Y0052209D02*
X0145652Y0052204D01*
X0145652Y0052209D02*
X0150606Y0052209D01*
X0150606Y0048272D02*
X0145652Y0048272D01*
X0145652Y0048267D01*
X0145652Y0044330D02*
X0150606Y0044330D01*
X0150606Y0044335D01*
X0150606Y0040398D02*
X0145652Y0040398D01*
X0145652Y0040393D01*
X0145313Y0035889D02*
X0145991Y0035889D01*
X0145991Y0035191D02*
X0145313Y0035191D01*
X0145313Y0034492D02*
X0145991Y0034492D01*
X0145991Y0033794D02*
X0145313Y0033794D01*
X0142275Y0033794D02*
X0140354Y0033794D01*
X0139655Y0034492D02*
X0141478Y0034492D01*
X0141349Y0035191D02*
X0138050Y0035191D01*
X0135537Y0035191D02*
X0118448Y0035191D01*
X0118448Y0035889D02*
X0121503Y0035889D01*
X0120734Y0036588D02*
X0118448Y0036588D01*
X0118448Y0037286D02*
X0120341Y0037286D01*
X0120110Y0037985D02*
X0118448Y0037985D01*
X0118448Y0038684D02*
X0120110Y0038684D01*
X0120263Y0039382D02*
X0118448Y0039382D01*
X0118448Y0040081D02*
X0120552Y0040081D01*
X0120525Y0040779D02*
X0118448Y0040779D01*
X0118448Y0041478D02*
X0120236Y0041478D01*
X0120110Y0042176D02*
X0118448Y0042176D01*
X0118448Y0042875D02*
X0120110Y0042875D01*
X0120368Y0043573D02*
X0118448Y0043573D01*
X0118448Y0044272D02*
X0120799Y0044272D01*
X0120420Y0044970D02*
X0118448Y0044970D01*
X0118448Y0045669D02*
X0120131Y0045669D01*
X0120110Y0046367D02*
X0118448Y0046367D01*
X0118448Y0047066D02*
X0120184Y0047066D01*
X0120473Y0047764D02*
X0118448Y0047764D01*
X0118448Y0048463D02*
X0120671Y0048463D01*
X0120315Y0049161D02*
X0118448Y0049161D01*
X0118448Y0049860D02*
X0120110Y0049860D01*
X0120110Y0050558D02*
X0118448Y0050558D01*
X0118448Y0051257D02*
X0120289Y0051257D01*
X0120608Y0051955D02*
X0118448Y0051955D01*
X0118448Y0052654D02*
X0120499Y0052654D01*
X0120210Y0053352D02*
X0118448Y0053352D01*
X0118448Y0054051D02*
X0120110Y0054051D01*
X0120110Y0054749D02*
X0118448Y0054749D01*
X0118448Y0055448D02*
X0120394Y0055448D01*
X0120861Y0056146D02*
X0118448Y0056146D01*
X0118448Y0056845D02*
X0120394Y0056845D01*
X0120110Y0057543D02*
X0118448Y0057543D01*
X0118448Y0058242D02*
X0120110Y0058242D01*
X0120210Y0058940D02*
X0118448Y0058940D01*
X0118448Y0059639D02*
X0120499Y0059639D01*
X0120607Y0060337D02*
X0118448Y0060337D01*
X0118448Y0061036D02*
X0120288Y0061036D01*
X0120110Y0061734D02*
X0118448Y0061734D01*
X0118448Y0062433D02*
X0120110Y0062433D01*
X0120315Y0063131D02*
X0118448Y0063131D01*
X0118448Y0063830D02*
X0120672Y0063830D01*
X0120472Y0064528D02*
X0118448Y0064528D01*
X0118448Y0065227D02*
X0120183Y0065227D01*
X0120110Y0065925D02*
X0118448Y0065925D01*
X0118448Y0066624D02*
X0120131Y0066624D01*
X0120421Y0067322D02*
X0118448Y0067322D01*
X0118448Y0068021D02*
X0120797Y0068021D01*
X0120367Y0068719D02*
X0118448Y0068719D01*
X0118448Y0069418D02*
X0120110Y0069418D01*
X0120110Y0070117D02*
X0118448Y0070117D01*
X0118448Y0070815D02*
X0120236Y0070815D01*
X0120526Y0071514D02*
X0118448Y0071514D01*
X0118448Y0072212D02*
X0120551Y0072212D01*
X0120262Y0072911D02*
X0118448Y0072911D01*
X0118448Y0073609D02*
X0120110Y0073609D01*
X0120110Y0074308D02*
X0118448Y0074308D01*
X0118448Y0075006D02*
X0120342Y0075006D01*
X0120736Y0075705D02*
X0118448Y0075705D01*
X0118186Y0076403D02*
X0120446Y0076403D01*
X0120157Y0077102D02*
X0117488Y0077102D01*
X0116789Y0077800D02*
X0119461Y0077800D01*
X0118763Y0078499D02*
X0116091Y0078499D01*
X0115392Y0079197D02*
X0118064Y0079197D01*
X0117366Y0079896D02*
X0114694Y0079896D01*
X0113995Y0080594D02*
X0116667Y0080594D01*
X0115968Y0081293D02*
X0113296Y0081293D01*
X0112598Y0081991D02*
X0115270Y0081991D01*
X0114571Y0082690D02*
X0111899Y0082690D01*
X0111201Y0083388D02*
X0113873Y0083388D01*
X0113174Y0084087D02*
X0110815Y0084087D01*
X0110815Y0084785D02*
X0112476Y0084785D01*
X0111777Y0085484D02*
X0110815Y0085484D01*
X0110815Y0086182D02*
X0111079Y0086182D01*
X0110380Y0086881D02*
X0110363Y0086881D01*
X0109682Y0087579D02*
X0098885Y0087579D01*
X0098885Y0088278D02*
X0108983Y0088278D01*
X0108285Y0088976D02*
X0093063Y0088976D01*
X0093063Y0089675D02*
X0092363Y0089675D01*
X0092363Y0090373D02*
X0093063Y0090373D01*
X0093063Y0091072D02*
X0092363Y0091072D01*
X0092363Y0091770D02*
X0093063Y0091770D01*
X0093063Y0092469D02*
X0092363Y0092469D01*
X0087465Y0092469D02*
X0086996Y0092469D01*
X0081119Y0100851D02*
X0080724Y0100851D01*
X0072654Y0094709D02*
X0072654Y0110870D01*
X0080921Y0119138D01*
X0061526Y0109233D02*
X0044689Y0109233D01*
X0044689Y0108535D02*
X0060827Y0108535D01*
X0060129Y0107836D02*
X0044689Y0107836D01*
X0044689Y0107138D02*
X0059430Y0107138D01*
X0058732Y0106439D02*
X0044689Y0106439D01*
X0044689Y0105741D02*
X0058033Y0105741D01*
X0057335Y0105042D02*
X0044689Y0105042D01*
X0044689Y0104344D02*
X0056636Y0104344D01*
X0055938Y0103645D02*
X0044689Y0103645D01*
X0044689Y0102947D02*
X0055239Y0102947D01*
X0054541Y0102248D02*
X0044689Y0102248D01*
X0044689Y0101550D02*
X0054418Y0101550D01*
X0053560Y0100851D02*
X0052866Y0100851D01*
X0050956Y0100851D02*
X0050256Y0100851D01*
X0050256Y0100152D02*
X0050956Y0100152D01*
X0050956Y0099454D02*
X0050256Y0099454D01*
X0050256Y0098755D02*
X0050956Y0098755D01*
X0050956Y0098057D02*
X0050256Y0098057D01*
X0050256Y0097358D02*
X0050956Y0097358D01*
X0050956Y0096660D02*
X0050256Y0096660D01*
X0050256Y0095961D02*
X0050956Y0095961D01*
X0050956Y0095263D02*
X0050256Y0095263D01*
X0050606Y0094709D02*
X0045094Y0094709D01*
X0045445Y0094564D02*
X0050256Y0094564D01*
X0050256Y0093866D02*
X0050956Y0093866D01*
X0050956Y0093167D02*
X0050256Y0093167D01*
X0050256Y0092469D02*
X0050956Y0092469D01*
X0050956Y0091770D02*
X0050256Y0091770D01*
X0050256Y0091072D02*
X0050956Y0091072D01*
X0050956Y0090373D02*
X0050256Y0090373D01*
X0050256Y0089675D02*
X0050956Y0089675D01*
X0050956Y0088976D02*
X0050256Y0088976D01*
X0045444Y0088976D02*
X0044745Y0088976D01*
X0044745Y0089675D02*
X0045444Y0089675D01*
X0045444Y0090373D02*
X0044745Y0090373D01*
X0044745Y0091072D02*
X0045444Y0091072D01*
X0045444Y0091770D02*
X0044745Y0091770D01*
X0044745Y0092469D02*
X0045444Y0092469D01*
X0045444Y0093167D02*
X0044745Y0093167D01*
X0044745Y0093866D02*
X0045444Y0093866D01*
X0045444Y0095263D02*
X0044745Y0095263D01*
X0044745Y0095961D02*
X0045444Y0095961D01*
X0045444Y0096660D02*
X0044745Y0096660D01*
X0044745Y0097358D02*
X0045444Y0097358D01*
X0045444Y0098057D02*
X0044745Y0098057D01*
X0044745Y0098755D02*
X0045444Y0098755D01*
X0045444Y0099454D02*
X0044745Y0099454D01*
X0044745Y0100152D02*
X0045444Y0100152D01*
X0045444Y0100851D02*
X0044745Y0100851D01*
X0047354Y0100851D02*
X0048346Y0100851D01*
X0061280Y0094359D02*
X0061980Y0094359D01*
X0061980Y0088536D01*
X0063776Y0088536D01*
X0064120Y0088628D01*
X0064375Y0088775D01*
X0064614Y0088536D01*
X0069669Y0088536D01*
X0069898Y0088764D01*
X0070126Y0088536D01*
X0075181Y0088536D01*
X0075409Y0088764D01*
X0075638Y0088536D01*
X0076465Y0088536D01*
X0076465Y0084315D01*
X0075600Y0084674D01*
X0074483Y0084674D01*
X0073172Y0085984D01*
X0072177Y0086980D01*
X0061547Y0086980D01*
X0059990Y0088536D01*
X0061280Y0088536D01*
X0061280Y0094359D01*
X0061280Y0093866D02*
X0061980Y0093866D01*
X0061980Y0093167D02*
X0061280Y0093167D01*
X0061280Y0092469D02*
X0061980Y0092469D01*
X0061980Y0091770D02*
X0061280Y0091770D01*
X0061280Y0091072D02*
X0061980Y0091072D01*
X0061980Y0090373D02*
X0061280Y0090373D01*
X0061280Y0089675D02*
X0061980Y0089675D01*
X0061980Y0088976D02*
X0061280Y0088976D01*
X0060248Y0088278D02*
X0076465Y0088278D01*
X0076465Y0087579D02*
X0060947Y0087579D01*
X0058234Y0085484D02*
X0044689Y0085484D01*
X0044689Y0086182D02*
X0057536Y0086182D01*
X0056837Y0086881D02*
X0044689Y0086881D01*
X0044689Y0087579D02*
X0056139Y0087579D01*
X0055440Y0088278D02*
X0044689Y0088278D01*
X0044689Y0084785D02*
X0058933Y0084785D01*
X0059631Y0084087D02*
X0044689Y0084087D01*
X0044689Y0083388D02*
X0064484Y0083388D01*
X0064204Y0082690D02*
X0044689Y0082690D01*
X0044689Y0081991D02*
X0064204Y0081991D01*
X0064309Y0081293D02*
X0044689Y0081293D01*
X0044689Y0080594D02*
X0064598Y0080594D01*
X0065222Y0079896D02*
X0044689Y0079896D01*
X0068842Y0078499D02*
X0076465Y0078499D01*
X0076465Y0077800D02*
X0068842Y0077800D01*
X0068842Y0077102D02*
X0076465Y0077102D01*
X0076465Y0076403D02*
X0068842Y0076403D01*
X0068842Y0075705D02*
X0075854Y0075705D01*
X0071658Y0082690D02*
X0070079Y0082690D01*
X0069800Y0083388D02*
X0070960Y0083388D01*
X0073672Y0085484D02*
X0076465Y0085484D01*
X0076465Y0086182D02*
X0072974Y0086182D01*
X0072275Y0086881D02*
X0076465Y0086881D01*
X0076465Y0084785D02*
X0074371Y0084785D01*
X0092713Y0083705D02*
X0100803Y0083705D01*
X0104122Y0083388D02*
X0104178Y0083388D01*
X0104178Y0082690D02*
X0104122Y0082690D01*
X0104122Y0081991D02*
X0104178Y0081991D01*
X0104178Y0081293D02*
X0104122Y0081293D01*
X0104122Y0080594D02*
X0104178Y0080594D01*
X0104178Y0079896D02*
X0104122Y0079896D01*
X0104122Y0079197D02*
X0104178Y0079197D01*
X0104178Y0078499D02*
X0104122Y0078499D01*
X0104122Y0077800D02*
X0104178Y0077800D01*
X0104178Y0077102D02*
X0104122Y0077102D01*
X0104122Y0076403D02*
X0104178Y0076403D01*
X0104178Y0075705D02*
X0104122Y0075705D01*
X0104122Y0075006D02*
X0104178Y0075006D01*
X0104178Y0074308D02*
X0104122Y0074308D01*
X0104122Y0073609D02*
X0104178Y0073609D01*
X0104178Y0072911D02*
X0104122Y0072911D01*
X0104122Y0072212D02*
X0104178Y0072212D01*
X0104178Y0071514D02*
X0104122Y0071514D01*
X0104122Y0070815D02*
X0104178Y0070815D01*
X0104178Y0070117D02*
X0104122Y0070117D01*
X0104122Y0069418D02*
X0104178Y0069418D01*
X0104178Y0068719D02*
X0104122Y0068719D01*
X0104122Y0068021D02*
X0104178Y0068021D01*
X0104178Y0067322D02*
X0104122Y0067322D01*
X0104122Y0066624D02*
X0104178Y0066624D01*
X0104178Y0065925D02*
X0104122Y0065925D01*
X0104122Y0065227D02*
X0104178Y0065227D01*
X0104178Y0064528D02*
X0104122Y0064528D01*
X0103507Y0063830D02*
X0104792Y0063830D01*
X0104946Y0059639D02*
X0103353Y0059639D01*
X0104052Y0058940D02*
X0104248Y0058940D01*
X0104178Y0058242D02*
X0104122Y0058242D01*
X0104122Y0057543D02*
X0104178Y0057543D01*
X0104178Y0056845D02*
X0104122Y0056845D01*
X0104122Y0056146D02*
X0104178Y0056146D01*
X0104178Y0055448D02*
X0104122Y0055448D01*
X0104122Y0054749D02*
X0104178Y0054749D01*
X0104178Y0054051D02*
X0104122Y0054051D01*
X0104122Y0053352D02*
X0104178Y0053352D01*
X0104178Y0052654D02*
X0104122Y0052654D01*
X0104122Y0051955D02*
X0104178Y0051955D01*
X0104178Y0051257D02*
X0104122Y0051257D01*
X0104122Y0050558D02*
X0104178Y0050558D01*
X0104178Y0049860D02*
X0104122Y0049860D01*
X0104122Y0049161D02*
X0104178Y0049161D01*
X0107496Y0050043D02*
X0093520Y0036067D01*
X0082890Y0036067D01*
X0078165Y0040791D01*
X0082677Y0038684D02*
X0093732Y0038684D01*
X0093034Y0037985D02*
X0083376Y0037985D01*
X0094349Y0034492D02*
X0097809Y0034492D01*
X0098507Y0035191D02*
X0095048Y0035191D01*
X0095746Y0035889D02*
X0099206Y0035889D01*
X0099904Y0036588D02*
X0096445Y0036588D01*
X0097143Y0037286D02*
X0100603Y0037286D01*
X0101301Y0037985D02*
X0097842Y0037985D01*
X0098540Y0038684D02*
X0102000Y0038684D01*
X0102698Y0039382D02*
X0099239Y0039382D01*
X0099937Y0040081D02*
X0103397Y0040081D01*
X0104095Y0040779D02*
X0100636Y0040779D01*
X0101334Y0041478D02*
X0104794Y0041478D01*
X0105492Y0042176D02*
X0102033Y0042176D01*
X0102731Y0042875D02*
X0106191Y0042875D01*
X0106889Y0043573D02*
X0103430Y0043573D01*
X0104128Y0044272D02*
X0107588Y0044272D01*
X0108286Y0044970D02*
X0104827Y0044970D01*
X0105526Y0045669D02*
X0108985Y0045669D01*
X0109536Y0046367D02*
X0106224Y0046367D01*
X0106923Y0047066D02*
X0109536Y0047066D01*
X0111236Y0045516D02*
X0099031Y0033311D01*
X0099031Y0031539D01*
X0098682Y0028206D02*
X0099381Y0028206D01*
X0099381Y0027507D02*
X0098682Y0027507D01*
X0098682Y0026809D02*
X0099381Y0026809D01*
X0099381Y0026110D02*
X0098682Y0026110D01*
X0099382Y0025412D02*
X0103406Y0025412D01*
X0103406Y0025284D02*
X0103406Y0025984D01*
X0104106Y0025984D01*
X0104106Y0028559D01*
X0105508Y0028559D01*
X0105852Y0028467D01*
X0106118Y0028313D01*
X0106384Y0028467D01*
X0106728Y0028559D01*
X0108130Y0028559D01*
X0108130Y0025984D01*
X0108130Y0025284D01*
X0105555Y0025284D01*
X0104106Y0025284D01*
X0104106Y0025984D01*
X0108130Y0025984D01*
X0108830Y0025984D01*
X0108830Y0028559D01*
X0110233Y0028559D01*
X0110576Y0028467D01*
X0110843Y0028313D01*
X0111109Y0028467D01*
X0111452Y0028559D01*
X0112855Y0028559D01*
X0112855Y0025984D01*
X0113555Y0025984D01*
X0116130Y0025984D01*
X0116130Y0027386D01*
X0116038Y0027730D01*
X0115860Y0028038D01*
X0115608Y0028289D01*
X0115301Y0028467D01*
X0114957Y0028559D01*
X0113555Y0028559D01*
X0113555Y0025984D01*
X0113555Y0025284D01*
X0116130Y0025284D01*
X0116130Y0023881D01*
X0116038Y0023538D01*
X0115860Y0023230D01*
X0115608Y0022979D01*
X0115301Y0022801D01*
X0114957Y0022709D01*
X0113555Y0022709D01*
X0113555Y0025284D01*
X0112855Y0025284D01*
X0112855Y0022709D01*
X0111452Y0022709D01*
X0111109Y0022801D01*
X0110843Y0022955D01*
X0110576Y0022801D01*
X0110233Y0022709D01*
X0108830Y0022709D01*
X0108830Y0025284D01*
X0108130Y0025284D01*
X0108130Y0022709D01*
X0106728Y0022709D01*
X0106384Y0022801D01*
X0106118Y0022955D01*
X0105852Y0022801D01*
X0105508Y0022709D01*
X0104106Y0022709D01*
X0104106Y0025284D01*
X0103406Y0025284D01*
X0103406Y0024713D02*
X0104106Y0024713D01*
X0104106Y0024015D02*
X0103406Y0024015D01*
X0103406Y0023316D02*
X0104106Y0023316D01*
X0104106Y0025412D02*
X0108130Y0025412D01*
X0108130Y0026110D02*
X0108830Y0026110D01*
X0108830Y0025984D02*
X0112855Y0025984D01*
X0112855Y0025284D01*
X0110280Y0025284D01*
X0108830Y0025284D01*
X0108830Y0025984D01*
X0108830Y0025412D02*
X0112855Y0025412D01*
X0112855Y0026110D02*
X0113555Y0026110D01*
X0113555Y0025412D02*
X0128751Y0025412D01*
X0128751Y0026110D02*
X0116130Y0026110D01*
X0116130Y0026809D02*
X0128751Y0026809D01*
X0128751Y0027507D02*
X0116097Y0027507D01*
X0115692Y0028206D02*
X0128800Y0028206D01*
X0129498Y0028904D02*
X0115628Y0028904D01*
X0116130Y0029603D02*
X0131844Y0029603D01*
X0131844Y0030301D02*
X0116130Y0030301D01*
X0116130Y0031000D02*
X0131844Y0031000D01*
X0131993Y0031698D02*
X0116130Y0031698D01*
X0116466Y0032397D02*
X0132282Y0032397D01*
X0132572Y0033095D02*
X0117165Y0033095D01*
X0117863Y0033794D02*
X0133234Y0033794D01*
X0133932Y0034492D02*
X0118448Y0034492D01*
X0116748Y0035083D02*
X0113205Y0031539D01*
X0108480Y0031539D02*
X0108480Y0033311D01*
X0114780Y0039610D01*
X0114780Y0071894D01*
X0108480Y0078193D01*
X0107496Y0078193D01*
X0107496Y0083705D02*
X0108480Y0083705D01*
X0116748Y0075437D01*
X0116748Y0035083D01*
X0123047Y0038429D02*
X0127935Y0038429D01*
X0127935Y0038424D01*
X0127935Y0042361D02*
X0127935Y0042366D01*
X0123047Y0042366D01*
X0123047Y0046303D02*
X0127935Y0046303D01*
X0127935Y0046298D01*
X0127935Y0050235D02*
X0127935Y0050240D01*
X0123047Y0050240D01*
X0123047Y0054172D02*
X0123047Y0054177D01*
X0123047Y0054172D02*
X0127935Y0054172D01*
X0127935Y0058109D02*
X0127935Y0058114D01*
X0123047Y0058114D01*
X0123052Y0062046D02*
X0123047Y0062051D01*
X0123052Y0062046D02*
X0127935Y0062046D01*
X0127935Y0062051D01*
X0127935Y0065983D02*
X0127935Y0065988D01*
X0123047Y0065988D01*
X0123047Y0069920D02*
X0123047Y0069925D01*
X0123047Y0069920D02*
X0127935Y0069920D01*
X0127935Y0073857D02*
X0123052Y0073857D01*
X0123047Y0073862D01*
X0123047Y0077799D02*
X0121866Y0077799D01*
X0104957Y0094709D01*
X0104792Y0092469D02*
X0097960Y0092469D01*
X0098756Y0091770D02*
X0105491Y0091770D01*
X0106189Y0091072D02*
X0098885Y0091072D01*
X0098885Y0090373D02*
X0106888Y0090373D01*
X0107586Y0089675D02*
X0098885Y0089675D01*
X0103670Y0086881D02*
X0104629Y0086881D01*
X0104178Y0086182D02*
X0104122Y0086182D01*
X0104122Y0085484D02*
X0104178Y0085484D01*
X0104178Y0084785D02*
X0104122Y0084785D01*
X0104122Y0084087D02*
X0104178Y0084087D01*
X0100803Y0078193D02*
X0092713Y0078193D01*
X0092713Y0072681D02*
X0100803Y0072681D01*
X0107496Y0072681D02*
X0108087Y0072681D01*
X0112811Y0067957D01*
X0112811Y0042366D01*
X0103756Y0033311D01*
X0103756Y0031539D01*
X0103406Y0028206D02*
X0104106Y0028206D01*
X0104106Y0027507D02*
X0103406Y0027507D01*
X0103406Y0026809D02*
X0104106Y0026809D01*
X0104106Y0026110D02*
X0103406Y0026110D01*
X0099381Y0024713D02*
X0098682Y0024713D01*
X0098682Y0024015D02*
X0099381Y0024015D01*
X0099381Y0023316D02*
X0098682Y0023316D01*
X0096327Y0023316D02*
X0071667Y0023316D01*
X0072365Y0022618D02*
X0128751Y0022618D01*
X0128751Y0023316D02*
X0115909Y0023316D01*
X0116130Y0024015D02*
X0128751Y0024015D01*
X0128751Y0024713D02*
X0116130Y0024713D01*
X0113555Y0024713D02*
X0112855Y0024713D01*
X0112855Y0024015D02*
X0113555Y0024015D01*
X0113555Y0023316D02*
X0112855Y0023316D01*
X0108830Y0023316D02*
X0108130Y0023316D01*
X0108130Y0024015D02*
X0108830Y0024015D01*
X0108830Y0024713D02*
X0108130Y0024713D01*
X0108130Y0026809D02*
X0108830Y0026809D01*
X0108830Y0027507D02*
X0108130Y0027507D01*
X0108130Y0028206D02*
X0108830Y0028206D01*
X0112855Y0028206D02*
X0113555Y0028206D01*
X0113555Y0027507D02*
X0112855Y0027507D01*
X0112855Y0026809D02*
X0113555Y0026809D01*
X0128752Y0021919D02*
X0073064Y0021919D01*
X0073762Y0021221D02*
X0129450Y0021221D01*
X0144137Y0021221D02*
X0189651Y0021221D01*
X0189651Y0021919D02*
X0144835Y0021919D01*
X0144837Y0022618D02*
X0189651Y0022618D01*
X0189651Y0023316D02*
X0144837Y0023316D01*
X0144837Y0024015D02*
X0189651Y0024015D01*
X0189651Y0024713D02*
X0144837Y0024713D01*
X0144837Y0025412D02*
X0189660Y0025412D01*
X0190358Y0026110D02*
X0144837Y0026110D01*
X0144837Y0026809D02*
X0191057Y0026809D01*
X0191755Y0027507D02*
X0144837Y0027507D01*
X0144788Y0028206D02*
X0192454Y0028206D01*
X0191966Y0028904D02*
X0144089Y0028904D01*
X0111236Y0045516D02*
X0111236Y0063429D01*
X0107496Y0067169D01*
X0109130Y0063131D02*
X0098885Y0063131D01*
X0098885Y0062433D02*
X0109536Y0062433D01*
X0109536Y0061734D02*
X0098885Y0061734D01*
X0098885Y0061036D02*
X0109536Y0061036D01*
X0109536Y0060337D02*
X0098885Y0060337D01*
X0100803Y0056146D02*
X0092713Y0056146D01*
X0092713Y0050634D02*
X0100803Y0050634D01*
X0107496Y0050634D02*
X0107496Y0050043D01*
X0107496Y0050634D02*
X0107496Y0056146D01*
X0100803Y0067169D02*
X0092713Y0067169D01*
X0123047Y0077799D02*
X0127931Y0077799D01*
X0127935Y0077794D01*
X0127931Y0073862D02*
X0127935Y0073857D01*
X0132238Y0082690D02*
X0141349Y0082690D01*
X0141349Y0083388D02*
X0132238Y0083388D01*
X0132238Y0084087D02*
X0141349Y0084087D01*
X0141349Y0084785D02*
X0132238Y0084785D01*
X0132238Y0085484D02*
X0141349Y0085484D01*
X0141349Y0086182D02*
X0132238Y0086182D01*
X0132238Y0086881D02*
X0141349Y0086881D01*
X0141349Y0087579D02*
X0132238Y0087579D01*
X0132238Y0088278D02*
X0141349Y0088278D01*
X0141349Y0088976D02*
X0132238Y0088976D01*
X0132238Y0089675D02*
X0141349Y0089675D01*
X0141349Y0090373D02*
X0132238Y0090373D01*
X0132238Y0091072D02*
X0141349Y0091072D01*
X0141349Y0091770D02*
X0132238Y0091770D01*
X0132238Y0092469D02*
X0141349Y0092469D01*
X0141349Y0093167D02*
X0132238Y0093167D01*
X0132238Y0093866D02*
X0134104Y0093866D01*
X0133405Y0094564D02*
X0132238Y0094564D01*
X0132238Y0095263D02*
X0132707Y0095263D01*
X0132008Y0095961D02*
X0131756Y0095961D01*
X0131310Y0096660D02*
X0117322Y0096660D01*
X0116321Y0095961D02*
X0121307Y0095961D01*
X0123047Y0093547D02*
X0127935Y0093547D01*
X0127935Y0093543D01*
X0127935Y0089610D02*
X0123047Y0089610D01*
X0127935Y0089610D02*
X0127935Y0089606D01*
X0127931Y0085673D02*
X0123047Y0085673D01*
X0127931Y0085673D02*
X0127935Y0085669D01*
X0127935Y0085673D01*
X0134863Y0095511D02*
X0131709Y0098665D01*
X0115173Y0098665D01*
X0117142Y0100851D02*
X0131844Y0100851D01*
X0134863Y0095511D02*
X0145652Y0095511D01*
X0145652Y0095516D01*
X0150606Y0095516D01*
X0152056Y0098755D02*
X0140944Y0098755D01*
X0141260Y0099454D02*
X0152056Y0099454D01*
X0152056Y0100152D02*
X0141550Y0100152D01*
X0141744Y0100851D02*
X0152056Y0100851D01*
X0152056Y0101550D02*
X0141744Y0101550D01*
X0141744Y0102248D02*
X0152056Y0102248D01*
X0152056Y0102947D02*
X0141599Y0102947D01*
X0144672Y0103645D02*
X0152056Y0103645D01*
X0152056Y0104344D02*
X0144837Y0104344D01*
X0144837Y0105042D02*
X0152056Y0105042D01*
X0152056Y0105741D02*
X0144837Y0105741D01*
X0144837Y0106439D02*
X0151452Y0106439D01*
X0150753Y0107138D02*
X0144837Y0107138D01*
X0144837Y0107836D02*
X0150055Y0107836D01*
X0149356Y0108535D02*
X0144837Y0108535D01*
X0144837Y0109233D02*
X0148658Y0109233D01*
X0147959Y0109932D02*
X0144837Y0109932D01*
X0144253Y0110630D02*
X0147261Y0110630D01*
X0156984Y0118314D02*
X0160584Y0118314D01*
X0160752Y0117615D02*
X0157683Y0117615D01*
X0158381Y0116917D02*
X0161031Y0116917D01*
X0161446Y0116218D02*
X0159080Y0116218D01*
X0159778Y0115520D02*
X0162043Y0115520D01*
X0162917Y0114821D02*
X0160477Y0114821D01*
X0161175Y0114123D02*
X0164949Y0114123D01*
X0168217Y0114821D02*
X0172792Y0114821D01*
X0172043Y0115520D02*
X0169091Y0115520D01*
X0169688Y0116218D02*
X0171345Y0116218D01*
X0171021Y0116917D02*
X0170103Y0116917D01*
X0170382Y0117615D02*
X0170731Y0117615D01*
X0175567Y0119138D02*
X0175567Y0110091D01*
X0175685Y0109972D01*
X0178568Y0106439D02*
X0178912Y0106439D01*
X0181709Y0103193D02*
X0181906Y0102996D01*
X0185252Y0102996D01*
X0187360Y0105042D02*
X0198119Y0105042D01*
X0198119Y0104344D02*
X0187873Y0104344D01*
X0188163Y0103645D02*
X0198119Y0103645D01*
X0198119Y0102947D02*
X0188189Y0102947D01*
X0188122Y0102248D02*
X0198119Y0102248D01*
X0198119Y0101550D02*
X0187832Y0101550D01*
X0187261Y0100851D02*
X0198119Y0100851D01*
X0198119Y0100152D02*
X0186063Y0100152D01*
X0186302Y0105741D02*
X0198119Y0105741D01*
X0198119Y0106439D02*
X0184505Y0106439D01*
X0185003Y0107138D02*
X0198119Y0107138D01*
X0198119Y0107836D02*
X0185224Y0107836D01*
X0185224Y0108535D02*
X0198119Y0108535D01*
X0198119Y0109233D02*
X0185224Y0109233D01*
X0175803Y0103161D02*
X0175685Y0103280D01*
X0175803Y0103161D02*
X0175803Y0099453D01*
X0178741Y0099454D02*
X0198119Y0099454D01*
X0198119Y0098755D02*
X0178694Y0098755D01*
X0178404Y0098057D02*
X0198119Y0098057D01*
X0198119Y0097358D02*
X0177863Y0097358D01*
X0176736Y0096660D02*
X0198119Y0096660D01*
X0207267Y0098755D02*
X0207788Y0098755D01*
X0207267Y0099454D02*
X0208487Y0099454D01*
X0209185Y0100152D02*
X0207267Y0100152D01*
X0207267Y0100851D02*
X0209884Y0100851D01*
X0210582Y0101550D02*
X0207267Y0101550D01*
X0207267Y0102248D02*
X0211201Y0102248D01*
X0211201Y0102947D02*
X0207267Y0102947D01*
X0207267Y0103645D02*
X0211201Y0103645D01*
X0211201Y0104344D02*
X0207267Y0104344D01*
X0207267Y0105042D02*
X0211201Y0105042D01*
X0211201Y0105741D02*
X0207267Y0105741D01*
X0207267Y0106439D02*
X0211833Y0106439D01*
X0211508Y0107138D02*
X0207267Y0107138D01*
X0207267Y0107836D02*
X0211201Y0107836D01*
X0211201Y0108535D02*
X0207267Y0108535D01*
X0207267Y0109233D02*
X0211201Y0109233D01*
X0211201Y0109932D02*
X0207267Y0109932D01*
X0207267Y0110630D02*
X0211201Y0110630D01*
X0211201Y0111329D02*
X0207267Y0111329D01*
X0207267Y0112027D02*
X0211201Y0112027D01*
X0211427Y0112726D02*
X0207267Y0112726D01*
X0207267Y0113424D02*
X0213867Y0113424D01*
X0213867Y0114123D02*
X0207267Y0114123D01*
X0208342Y0114821D02*
X0212792Y0114821D01*
X0212043Y0115520D02*
X0209091Y0115520D01*
X0209789Y0116218D02*
X0211345Y0116218D01*
X0211021Y0116917D02*
X0210113Y0116917D01*
X0210402Y0117615D02*
X0210731Y0117615D01*
X0215567Y0119138D02*
X0215567Y0110823D01*
X0214717Y0109972D01*
X0217925Y0107138D02*
X0230720Y0107138D01*
X0232055Y0106439D02*
X0217600Y0106439D01*
X0218232Y0105741D02*
X0218848Y0105741D01*
X0220948Y0105741D02*
X0221391Y0105741D01*
X0219898Y0102996D02*
X0224913Y0102996D01*
X0224913Y0103023D01*
X0235488Y0106439D02*
X0238327Y0106439D01*
X0238536Y0107138D02*
X0236824Y0107138D01*
X0242603Y0104965D02*
X0242630Y0104991D01*
X0242630Y0104965D01*
X0247457Y0104965D01*
X0247457Y0101054D02*
X0242630Y0101054D01*
X0247457Y0101054D02*
X0247457Y0101028D01*
X0247457Y0097091D02*
X0242630Y0097091D01*
X0242630Y0097117D01*
X0242630Y0093180D02*
X0242630Y0093154D01*
X0247457Y0093154D01*
X0247457Y0089217D02*
X0242630Y0089217D01*
X0242630Y0089243D01*
X0238753Y0086881D02*
X0237032Y0086881D01*
X0235991Y0087579D02*
X0238327Y0087579D01*
X0225729Y0076403D02*
X0221670Y0076403D01*
X0222997Y0075705D02*
X0225729Y0075705D01*
X0225729Y0075006D02*
X0223621Y0075006D01*
X0223911Y0074308D02*
X0226129Y0074308D01*
X0226512Y0072212D02*
X0241197Y0072212D01*
X0240504Y0071514D02*
X0227204Y0071514D01*
X0227204Y0070815D02*
X0240504Y0070815D01*
X0240504Y0070117D02*
X0227204Y0070117D01*
X0227204Y0069418D02*
X0240504Y0069418D01*
X0240504Y0068719D02*
X0227204Y0068719D01*
X0227204Y0068021D02*
X0240504Y0068021D01*
X0240583Y0067322D02*
X0227125Y0067322D01*
X0226427Y0066624D02*
X0241282Y0066624D01*
X0222854Y0069461D02*
X0221079Y0071236D01*
X0221079Y0073469D01*
X0218420Y0072212D02*
X0197968Y0072212D01*
X0198666Y0071514D02*
X0218504Y0071514D01*
X0218504Y0070815D02*
X0199365Y0070815D01*
X0200063Y0070117D02*
X0218504Y0070117D01*
X0218504Y0069418D02*
X0200762Y0069418D01*
X0201460Y0068719D02*
X0218504Y0068719D01*
X0218504Y0068021D02*
X0202159Y0068021D01*
X0202857Y0067322D02*
X0218583Y0067322D01*
X0219282Y0066624D02*
X0203556Y0066624D01*
X0199819Y0075831D02*
X0199819Y0114886D01*
X0198119Y0114123D02*
X0196656Y0114123D01*
X0209928Y0121806D02*
X0211206Y0121806D01*
X0210917Y0121108D02*
X0210217Y0121108D01*
X0210506Y0120409D02*
X0210628Y0120409D01*
X0211792Y0122505D02*
X0209342Y0122505D01*
X0208643Y0123203D02*
X0212491Y0123203D01*
X0213872Y0123902D02*
X0207262Y0123902D01*
X0217262Y0123902D02*
X0252587Y0123902D01*
X0252587Y0124600D02*
X0150697Y0124600D01*
X0151396Y0123902D02*
X0163887Y0123902D01*
X0165217Y0123902D02*
X0165917Y0123902D01*
X0165917Y0123203D02*
X0165217Y0123203D01*
X0165217Y0122505D02*
X0165917Y0122505D01*
X0165917Y0121806D02*
X0165217Y0121806D01*
X0165217Y0121108D02*
X0165917Y0121108D01*
X0165917Y0120409D02*
X0165217Y0120409D01*
X0165217Y0119711D02*
X0165917Y0119711D01*
X0169870Y0121806D02*
X0171206Y0121806D01*
X0170917Y0121108D02*
X0170231Y0121108D01*
X0170464Y0120409D02*
X0170628Y0120409D01*
X0171792Y0122505D02*
X0169342Y0122505D01*
X0168563Y0123203D02*
X0172491Y0123203D01*
X0173872Y0123902D02*
X0167247Y0123902D01*
X0162571Y0123203D02*
X0152094Y0123203D01*
X0152793Y0122505D02*
X0161792Y0122505D01*
X0161264Y0121806D02*
X0153491Y0121806D01*
X0154190Y0121108D02*
X0160903Y0121108D01*
X0178693Y0100152D02*
X0178706Y0100152D01*
X0154937Y0087642D02*
X0204701Y0037878D01*
X0204701Y0033311D01*
X0194701Y0023311D02*
X0189740Y0018350D01*
X0074228Y0018350D01*
X0061630Y0030949D01*
X0061630Y0045142D01*
X0053533Y0051257D02*
X0053192Y0051257D01*
X0048021Y0051257D02*
X0047680Y0051257D01*
X0045094Y0045142D02*
X0045094Y0034098D01*
X0057299Y0021894D01*
X0054362Y0021919D02*
X0044689Y0021919D01*
X0044689Y0021221D02*
X0054399Y0021221D01*
X0054362Y0021309D02*
X0054809Y0020230D01*
X0055635Y0019403D01*
X0056715Y0018956D01*
X0057884Y0018956D01*
X0058963Y0019403D01*
X0059789Y0020230D01*
X0060227Y0021286D01*
X0060267Y0021246D01*
X0060267Y0020128D01*
X0060715Y0019049D01*
X0061541Y0018222D01*
X0062620Y0017775D01*
X0063789Y0017775D01*
X0064869Y0018222D01*
X0065695Y0019049D01*
X0066142Y0020128D01*
X0066142Y0020489D01*
X0070560Y0016071D01*
X0071443Y0015189D01*
X0044689Y0015189D01*
X0044689Y0032100D01*
X0054362Y0022427D01*
X0054362Y0021309D01*
X0054688Y0020522D02*
X0044689Y0020522D01*
X0044689Y0019824D02*
X0055215Y0019824D01*
X0056307Y0019125D02*
X0044689Y0019125D01*
X0044689Y0018427D02*
X0061337Y0018427D01*
X0060683Y0019125D02*
X0058291Y0019125D01*
X0059383Y0019824D02*
X0060393Y0019824D01*
X0060267Y0020522D02*
X0059911Y0020522D01*
X0060200Y0021221D02*
X0060267Y0021221D01*
X0063205Y0020713D02*
X0050606Y0033311D01*
X0050606Y0045142D01*
X0045090Y0031698D02*
X0044689Y0031698D01*
X0044689Y0031000D02*
X0045789Y0031000D01*
X0046487Y0030301D02*
X0044689Y0030301D01*
X0044689Y0029603D02*
X0047186Y0029603D01*
X0047884Y0028904D02*
X0044689Y0028904D01*
X0044689Y0028206D02*
X0048583Y0028206D01*
X0049281Y0027507D02*
X0044689Y0027507D01*
X0044689Y0026809D02*
X0049980Y0026809D01*
X0050678Y0026110D02*
X0044689Y0026110D01*
X0044689Y0025412D02*
X0051377Y0025412D01*
X0052075Y0024713D02*
X0044689Y0024713D01*
X0044689Y0024015D02*
X0052774Y0024015D01*
X0053472Y0023316D02*
X0044689Y0023316D01*
X0044689Y0022618D02*
X0054171Y0022618D01*
X0065073Y0018427D02*
X0068205Y0018427D01*
X0068903Y0017728D02*
X0044689Y0017728D01*
X0044689Y0017030D02*
X0069602Y0017030D01*
X0070300Y0016331D02*
X0044689Y0016331D01*
X0044689Y0015633D02*
X0070999Y0015633D01*
X0067506Y0019125D02*
X0065727Y0019125D01*
X0066016Y0019824D02*
X0066808Y0019824D01*
X0070968Y0024015D02*
X0096107Y0024015D01*
X0096107Y0024713D02*
X0070270Y0024713D01*
X0074461Y0020522D02*
X0189508Y0020522D01*
X0150606Y0083705D02*
X0145652Y0083705D01*
X0145652Y0083700D01*
X0145652Y0087637D02*
X0145652Y0087642D01*
X0150606Y0087642D01*
X0154937Y0087642D01*
X0150606Y0091579D02*
X0145652Y0091579D01*
X0145652Y0091574D01*
X0141349Y0097358D02*
X0139475Y0097358D01*
X0140245Y0098057D02*
X0141958Y0098057D01*
X0208874Y0097437D02*
X0208874Y0089610D01*
X0208874Y0097437D02*
X0214717Y0103280D01*
X0220217Y0121108D02*
X0252587Y0121108D01*
X0252587Y0121806D02*
X0219928Y0121806D01*
X0219342Y0122505D02*
X0252587Y0122505D01*
X0252587Y0123203D02*
X0218643Y0123203D01*
X0064584Y0100851D02*
X0063890Y0100851D01*
M02*
